<svg id="instagram-hvid" xmlns="http://www.w3.org/2000/svg" width="100.31" height="100.31" viewBox="0 0 100.31 100.31">
  <path id="Path_209" data-name="Path 209" d="M228.633,219.816A8.816,8.816,0,1,1,219.816,211,8.817,8.817,0,0,1,228.633,219.816Zm0,0" transform="translate(-169.661 -169.661)" fill="#e4e4e4"/>
  <path id="Path_210" data-name="Path 210" d="M161.534,120H131.755A11.768,11.768,0,0,0,120,131.755v29.779a11.768,11.768,0,0,0,11.755,11.755h29.779a11.768,11.768,0,0,0,11.755-11.755V131.755A11.768,11.768,0,0,0,161.534,120Zm-14.89,41.339a14.694,14.694,0,1,1,14.694-14.694A14.71,14.71,0,0,1,146.645,161.339Zm16.849-28.6a2.939,2.939,0,1,1,2.939-2.939A2.939,2.939,0,0,1,163.494,132.735Zm0,0" transform="translate(-96.49 -96.49)" fill="#e4e4e4"/>
  <path id="Path_211" data-name="Path 211" d="M73.861,0H26.449A26.479,26.479,0,0,0,0,26.449V73.861A26.479,26.479,0,0,0,26.449,100.31H73.861A26.479,26.479,0,0,0,100.31,73.861V26.449A26.479,26.479,0,0,0,73.861,0Zm8.816,65.044A17.653,17.653,0,0,1,65.044,82.677H35.265A17.653,17.653,0,0,1,17.633,65.044V35.265A17.653,17.653,0,0,1,35.265,17.633H65.044A17.653,17.653,0,0,1,82.677,35.265Zm0,0" fill="#e4e4e4"/>
</svg>
