<svg xmlns="http://www.w3.org/2000/svg" xmlns:xlink="http://www.w3.org/1999/xlink" width="80.685" height="80.685" viewBox="0 0 80.685 80.685">
  <defs>
    <filter id="Path_75" x="0" y="0" width="80.685" height="80.685" filterUnits="userSpaceOnUse">
      <feOffset input="SourceAlpha"/>
      <feGaussianBlur stdDeviation="4.5" result="blur"/>
      <feFlood flood-opacity="0.239"/>
      <feComposite operator="in" in2="blur"/>
      <feComposite in="SourceGraphic"/>
    </filter>
  </defs>
  <g id="Group_24" data-name="Group 24" transform="translate(-456.499 -378.334)">
    <g transform="matrix(1, 0, 0, 1, 456.5, 378.33)" filter="url(#Path_75)">
      <path id="Path_75-2" data-name="Path 75" d="M523.684,418.678a26.708,26.708,0,0,1-4.462,14.825q-.657.99-1.4,1.92c-.142.178-.287.357-.438.532-.384.46-.789.906-1.209,1.341-.117.125-.237.248-.36.371a26.84,26.84,0,0,1-37.231.68l-2.565-2.737a26.833,26.833,0,0,1,1.285-35.333c.479-.513.978-1,1.5-1.475l.084-.075q.949-.853,1.979-1.617a26.844,26.844,0,0,1,31.752-.156,27.35,27.35,0,0,1,3.272,2.807c.278.282.554.572.822.867l0,0c.382.421.753.855,1.107,1.3A26.721,26.721,0,0,1,523.684,418.678Z" transform="translate(-456.5 -378.33)" fill="#090909"/>
    </g>
    <path id="Path_76" data-name="Path 76" d="M493.813,415.051V427.9a8.013,8.013,0,0,1-.393,2.589,4.395,4.395,0,0,1-4.1,3.226c-.107,0-.215-.007-.308-.014a4.876,4.876,0,0,1-3.4-1.831,1.076,1.076,0,0,0-1.688-.057L481,434.87a1.227,1.227,0,0,0-.114,1.438,10.7,10.7,0,0,0,8.54,4.206,11.74,11.74,0,0,0,7.431-2.468,11.555,11.555,0,0,0,4.106-7.131,16.141,16.141,0,0,0,.272-3.011V408.671A11.221,11.221,0,0,0,493.813,415.051Zm6.351-15.421h-5.279a1.085,1.085,0,0,0-1.073,1.094v1.187a19.722,19.722,0,0,1,6.666-2.224A.771.771,0,0,0,500.164,399.63Z" transform="translate(-3.049 -2.22)" fill="#ddd"/>
    <path id="Path_77" data-name="Path 77" d="M517.652,420.276h-10.3a.985.985,0,0,0-1.016,1.016v4.241a.974.974,0,0,0,1.016.966h4.292v4.556a16.745,16.745,0,0,1-6.38,1.345,11.815,11.815,0,0,1-2.089-.186,12.731,12.731,0,0,1-3.684,6.409,19.685,19.685,0,0,0,5.393.751,27.068,27.068,0,0,0,13.3-3.49,1.026,1.026,0,0,0,.429-.858V421.292A1,1,0,0,0,517.652,420.276Zm-12.445-12.61a12.17,12.17,0,0,1,8.1,3.111.916.916,0,0,0,1.395,0l3.326-3.483a1.039,1.039,0,0,0-.057-1.5,20.282,20.282,0,0,0-13.089-4.992c-.422,0-.837.014-1.245.05a18.894,18.894,0,0,0-9.434,3.19,19.315,19.315,0,0,0-8.576,16.129,19.088,19.088,0,0,0,4.907,12.86,1.559,1.559,0,0,0,.186.007c1.731,0,3.483-1.488,3.483-4.8v-3.219a12.268,12.268,0,0,1-1.016-4.907,12.662,12.662,0,0,1,1.016-4.957,12.147,12.147,0,0,1,9.441-7.381A11.2,11.2,0,0,1,505.206,407.666Z" transform="translate(-4.451 -2.553)" fill="#ddd"/>
  </g>
</svg>
