<svg xmlns="http://www.w3.org/2000/svg" width="112.357" height="112.356" viewBox="0 0 112.357 112.356">
  <g id="Group_21" data-name="Group 21" transform="translate(-469.999 -391.834)">
    <path id="Path_75" data-name="Path 75" d="M582.355,448.016a55.9,55.9,0,0,1-9.339,31.027q-1.374,2.073-2.934,4.019c-.3.373-.6.747-.916,1.114-.8.963-1.651,1.9-2.531,2.807-.246.262-.5.518-.753.775a56.172,56.172,0,0,1-77.921,1.424l-5.368-5.729a56.159,56.159,0,0,1,2.69-73.949c1-1.073,2.048-2.094,3.138-3.087l.175-.157q1.987-1.785,4.142-3.383a56.181,56.181,0,0,1,66.454-.326,57.26,57.26,0,0,1,6.849,5.874c.582.59,1.16,1.2,1.72,1.814l.006.006c.8.88,1.575,1.79,2.316,2.724A55.925,55.925,0,0,1,582.355,448.016Z" transform="translate(0 0)" fill="#090909"/>
    <path id="Path_76" data-name="Path 76" d="M508.135,431.9v26.9a16.769,16.769,0,0,1-.823,5.419c-1.587,4.611-5.179,6.751-8.577,6.751-.225,0-.449-.015-.644-.03a10.205,10.205,0,0,1-7.125-3.832,2.252,2.252,0,0,0-3.533-.12l-6.108,6.392a2.567,2.567,0,0,0-.24,3.009,22.384,22.384,0,0,0,17.874,8.8,24.571,24.571,0,0,0,15.553-5.164,24.184,24.184,0,0,0,8.593-14.925,33.793,33.793,0,0,0,.569-6.3V418.551A23.486,23.486,0,0,0,508.135,431.9Zm13.293-32.274H510.38a2.27,2.27,0,0,0-2.245,2.29v2.485a41.277,41.277,0,0,1,13.952-4.656A1.611,1.611,0,0,0,521.428,399.63Z" transform="translate(5.322 3.874)" fill="#da7400"/>
    <path id="Path_77" data-name="Path 77" d="M552.648,441.562H531.092a2.061,2.061,0,0,0-2.126,2.126v8.877a2.038,2.038,0,0,0,2.126,2.021h8.982v9.536a35.041,35.041,0,0,1-13.353,2.814,24.723,24.723,0,0,1-4.371-.389,26.644,26.644,0,0,1-7.709,13.413,41.2,41.2,0,0,0,11.287,1.572,56.652,56.652,0,0,0,27.843-7.305,2.149,2.149,0,0,0,.9-1.8V443.688A2.1,2.1,0,0,0,552.648,441.562ZM526.6,415.171a25.471,25.471,0,0,1,16.96,6.512,1.917,1.917,0,0,0,2.919,0l6.961-7.29a2.174,2.174,0,0,0-.12-3.144A42.449,42.449,0,0,0,525.928,400.8c-.883,0-1.751.03-2.6.1a39.542,39.542,0,0,0-19.745,6.676,40.425,40.425,0,0,0-17.948,33.756A39.95,39.95,0,0,0,495.9,468.253a3.273,3.273,0,0,0,.389.015c3.623,0,7.29-3.114,7.29-10.044v-6.736a25.677,25.677,0,0,1-2.126-10.269,26.5,26.5,0,0,1,2.126-10.374,25.422,25.422,0,0,1,19.76-15.448A23.428,23.428,0,0,1,526.6,415.171Z" transform="translate(7.768 4.456)" fill="#da7400"/>
  </g>
</svg>
