<svg id="linkedin-logo-hvid" xmlns="http://www.w3.org/2000/svg" width="98.619" height="98.619" viewBox="0 0 98.619 98.619">
  <g id="post-linkedin">
    <path id="Path_208" data-name="Path 208" d="M88.757,0H9.862A9.891,9.891,0,0,0,0,9.862V88.757a9.891,9.891,0,0,0,9.862,9.862H88.757a9.891,9.891,0,0,0,9.862-9.862V9.862A9.891,9.891,0,0,0,88.757,0ZM29.586,83.826H14.793V39.447H29.586Zm-7.4-52.761a8.876,8.876,0,1,1,8.876-8.876A8.839,8.839,0,0,1,22.189,31.065ZM83.826,83.826H69.033V57.692a7.4,7.4,0,0,0-14.793,0V83.826H39.447V39.447H54.24v5.917a15.928,15.928,0,0,1,12.327-6.9A17.471,17.471,0,0,1,83.826,55.72Z" fill="#e4e4e4"/>
  </g>
</svg>
