<svg xmlns="http://www.w3.org/2000/svg" xmlns:xlink="http://www.w3.org/1999/xlink" width="40.522" height="45.114" viewBox="0 0 40.522 45.114">
  <defs>
    <linearGradient id="linear-gradient" x1="-5.079" y1="97.686" x2="2.839" y2="-40.338" gradientUnits="objectBoundingBox">
      <stop offset="0" stop-color="#f7931e"/>
      <stop offset="0.205" stop-color="#f68f1e"/>
      <stop offset="0.385" stop-color="#f5841e"/>
      <stop offset="0.557" stop-color="#f4721f"/>
      <stop offset="0.722" stop-color="#f25920"/>
      <stop offset="0.883" stop-color="#ef3822"/>
      <stop offset="1" stop-color="#ed1c24"/>
    </linearGradient>
    <linearGradient id="linear-gradient-2" x1="-8.364" y1="121.941" x2="4.62" y2="-56.269" xlink:href="#linear-gradient"/>
    <linearGradient id="linear-gradient-3" x1="-15.126" y1="148.197" x2="8.294" y2="-73.634" xlink:href="#linear-gradient"/>
    <linearGradient id="linear-gradient-4" x1="-6.06" y1="80.26" x2="2.558" y2="-24.446" xlink:href="#linear-gradient"/>
    <linearGradient id="linear-gradient-5" x1="-41.653" y1="188.188" x2="22.826" y2="-99.521" xlink:href="#linear-gradient"/>
    <linearGradient id="linear-gradient-6" x1="-3.035" y1="40.22" x2="1.65" y2="-12.368" xlink:href="#linear-gradient"/>
    <linearGradient id="linear-gradient-7" x1="-2.222" y1="28.943" x2="1.415" y2="-9.018" xlink:href="#linear-gradient"/>
    <linearGradient id="linear-gradient-8" x1="-1.796" y1="22.752" x2="1.296" y2="-7.181" xlink:href="#linear-gradient"/>
    <linearGradient id="linear-gradient-9" x1="-1.493" y1="17.386" x2="1.219" y2="-5.567" xlink:href="#linear-gradient"/>
    <linearGradient id="linear-gradient-10" x1="-1.305" y1="14.993" x2="1.169" y2="-4.85" xlink:href="#linear-gradient"/>
    <linearGradient id="linear-gradient-11" x1="-1.162" y1="13.22" x2="1.132" y2="-4.315" xlink:href="#linear-gradient"/>
    <linearGradient id="linear-gradient-12" x1="-1.048" y1="11.839" x2="1.103" y2="-3.894" xlink:href="#linear-gradient"/>
    <linearGradient id="linear-gradient-13" x1="-0.952" y1="10.735" x2="1.08" y2="-3.554" xlink:href="#linear-gradient"/>
    <linearGradient id="linear-gradient-14" x1="-0.87" y1="9.829" x2="1.059" y2="-3.273" xlink:href="#linear-gradient"/>
    <linearGradient id="linear-gradient-15" x1="-0.797" y1="9.076" x2="1.042" y2="-3.037" xlink:href="#linear-gradient"/>
    <linearGradient id="linear-gradient-16" x1="-0.732" y1="8.446" x2="1.026" y2="-2.835" xlink:href="#linear-gradient"/>
    <linearGradient id="linear-gradient-17" x1="-0.671" y1="7.924" x2="1.011" y2="-2.663" xlink:href="#linear-gradient"/>
    <linearGradient id="linear-gradient-18" x1="-0.615" y1="7.501" x2="0.997" y2="-2.516" xlink:href="#linear-gradient"/>
    <linearGradient id="linear-gradient-19" x1="-0.567" y1="7.151" x2="0.988" y2="-2.406" xlink:href="#linear-gradient"/>
    <linearGradient id="linear-gradient-20" x1="-1.686" y1="19.211" x2="2.255" y2="-14.568" xlink:href="#linear-gradient"/>
    <linearGradient id="linear-gradient-21" x1="-2.158" y1="16.818" x2="1.203" y2="-3.539" xlink:href="#linear-gradient"/>
    <linearGradient id="linear-gradient-22" x1="-1.847" y1="24.646" x2="2.542" y2="-20.58" xlink:href="#linear-gradient"/>
    <linearGradient id="linear-gradient-23" x1="-2.592" y1="20.95" x2="1.279" y2="-4.358" xlink:href="#linear-gradient"/>
    <linearGradient id="linear-gradient-24" x1="-3.055" y1="25.746" x2="1.377" y2="-5.466" xlink:href="#linear-gradient"/>
    <linearGradient id="linear-gradient-25" x1="-1.933" y1="29.128" x2="2.755" y2="-26.135" xlink:href="#linear-gradient"/>
    <linearGradient id="linear-gradient-26" x1="-8.752" y1="28.236" x2="5.865" y2="-15.471" xlink:href="#linear-gradient"/>
    <linearGradient id="linear-gradient-27" x1="-6.077" y1="22" x2="4.567" y2="-12.707" xlink:href="#linear-gradient"/>
    <linearGradient id="linear-gradient-28" x1="-1.982" y1="32.31" x2="2.933" y2="-30.772" xlink:href="#linear-gradient"/>
    <linearGradient id="linear-gradient-29" x1="-3.649" y1="32.192" x2="1.522" y2="-7.078" xlink:href="#linear-gradient"/>
    <linearGradient id="linear-gradient-30" x1="-5.057" y1="20.47" x2="4.095" y2="-12.347" xlink:href="#linear-gradient"/>
    <linearGradient id="linear-gradient-31" x1="-4.664" y1="42.028" x2="1.781" y2="-9.68" xlink:href="#linear-gradient"/>
    <linearGradient id="linear-gradient-32" x1="-1.995" y1="30.169" x2="3.06" y2="-30.029" xlink:href="#linear-gradient"/>
    <linearGradient id="linear-gradient-33" x1="-1.996" y1="27.469" x2="3.168" y2="-28.385" xlink:href="#linear-gradient"/>
    <linearGradient id="linear-gradient-34" x1="-6.222" y1="56.925" x2="2.206" y2="-13.806" xlink:href="#linear-gradient"/>
    <linearGradient id="linear-gradient-35" x1="-4.453" y1="20.134" x2="3.829" y2="-12.631" xlink:href="#linear-gradient"/>
    <linearGradient id="linear-gradient-36" x1="-9.302" y1="80.773" x2="3.077" y2="-20.741" xlink:href="#linear-gradient"/>
    <linearGradient id="linear-gradient-37" x1="-1.992" y1="24.871" x2="3.261" y2="-26.555" xlink:href="#linear-gradient"/>
    <linearGradient id="linear-gradient-38" x1="-4.046" y1="20.621" x2="3.66" y2="-13.423" xlink:href="#linear-gradient"/>
    <linearGradient id="linear-gradient-39" x1="-3.75" y1="21.943" x2="3.545" y2="-14.797" xlink:href="#linear-gradient"/>
    <linearGradient id="linear-gradient-40" x1="-18.414" y1="115.841" x2="5.71" y2="-31.614" xlink:href="#linear-gradient"/>
    <linearGradient id="linear-gradient-41" x1="-1.984" y1="22.454" x2="3.342" y2="-24.668" xlink:href="#linear-gradient"/>
    <linearGradient id="linear-gradient-42" x1="-3.523" y1="24.405" x2="3.463" y2="-17.038" xlink:href="#linear-gradient"/>
    <linearGradient id="linear-gradient-43" x1="-1.973" y1="20.305" x2="3.413" y2="-22.871" xlink:href="#linear-gradient"/>
    <linearGradient id="linear-gradient-44" x1="-3.342" y1="28.819" x2="3.405" y2="-20.823" xlink:href="#linear-gradient"/>
    <linearGradient id="linear-gradient-45" x1="-1.961" y1="18.45" x2="3.476" y2="-21.244" xlink:href="#linear-gradient"/>
    <linearGradient id="linear-gradient-46" x1="-3.194" y1="38.062" x2="3.362" y2="-28.488" xlink:href="#linear-gradient"/>
    <linearGradient id="linear-gradient-47" x1="-1.947" y1="16.686" x2="3.53" y2="-19.567" xlink:href="#linear-gradient"/>
    <linearGradient id="linear-gradient-48" x1="-1.938" y1="15.722" x2="3.587" y2="-18.8" xlink:href="#linear-gradient"/>
    <linearGradient id="linear-gradient-49" x1="-3.058" y1="56.746" x2="3.327" y2="-43.995" xlink:href="#linear-gradient"/>
    <linearGradient id="linear-gradient-50" x1="-1.929" y1="14.952" x2="3.64" y2="-18.202" xlink:href="#linear-gradient"/>
    <linearGradient id="linear-gradient-51" x1="-2.942" y1="99.881" x2="3.301" y2="-79.766" xlink:href="#linear-gradient"/>
    <linearGradient id="linear-gradient-52" x1="-2.861" y1="59.116" x2="3.296" y2="-48.118" xlink:href="#linear-gradient"/>
    <linearGradient id="linear-gradient-53" x1="-1.921" y1="14.37" x2="3.69" y2="-17.79" xlink:href="#linear-gradient"/>
    <linearGradient id="linear-gradient-54" x1="-1.914" y1="13.987" x2="3.737" y2="-17.6" xlink:href="#linear-gradient"/>
    <linearGradient id="linear-gradient-55" x1="-2.829" y1="34.812" x2="3.328" y2="-28.622" xlink:href="#linear-gradient"/>
    <linearGradient id="linear-gradient-56" x1="-2.797" y1="23.201" x2="3.36" y2="-19.191" xlink:href="#linear-gradient"/>
    <linearGradient id="linear-gradient-57" x1="-1.908" y1="13.834" x2="3.784" y2="-17.691" xlink:href="#linear-gradient"/>
    <linearGradient id="linear-gradient-58" x1="-1.903" y1="13.905" x2="3.83" y2="-18.077" xlink:href="#linear-gradient"/>
    <linearGradient id="linear-gradient-59" x1="-2.764" y1="17.056" x2="3.393" y2="-14.178" xlink:href="#linear-gradient"/>
    <linearGradient id="linear-gradient-60" x1="-3.483" y1="66.261" x2="2.358" y2="-30.179" xlink:href="#linear-gradient"/>
    <linearGradient id="linear-gradient-61" x1="-2.151" y1="18.37" x2="1.882" y2="-8.845" xlink:href="#linear-gradient"/>
    <linearGradient id="linear-gradient-62" x1="-1.899" y1="14.228" x2="3.876" y2="-18.815" xlink:href="#linear-gradient"/>
    <linearGradient id="linear-gradient-63" x1="-2.729" y1="13.391" x2="3.428" y2="-11.189" xlink:href="#linear-gradient"/>
    <linearGradient id="linear-gradient-64" x1="-1.895" y1="14.726" x2="3.922" y2="-19.809" xlink:href="#linear-gradient"/>
    <linearGradient id="linear-gradient-65" x1="-1.912" y1="12.298" x2="1.835" y2="-6.074" xlink:href="#linear-gradient"/>
    <linearGradient id="linear-gradient-66" x1="-2.693" y1="11.011" x2="3.464" y2="-9.256" xlink:href="#linear-gradient"/>
    <linearGradient id="linear-gradient-67" x1="-2.656" y1="9.362" x2="3.501" y2="-7.924" xlink:href="#linear-gradient"/>
    <linearGradient id="linear-gradient-68" x1="-1.859" y1="10.853" x2="1.863" y2="-5.606" xlink:href="#linear-gradient"/>
    <linearGradient id="linear-gradient-69" x1="-1.89" y1="15.355" x2="3.968" y2="-21.007" xlink:href="#linear-gradient"/>
    <linearGradient id="linear-gradient-70" x1="-1.82" y1="10.066" x2="1.902" y2="-5.45" xlink:href="#linear-gradient"/>
    <linearGradient id="linear-gradient-71" x1="-2.619" y1="8.17" x2="3.538" y2="-6.972" xlink:href="#linear-gradient"/>
    <linearGradient id="linear-gradient-72" x1="-1.884" y1="16.116" x2="4.014" y2="-22.429" xlink:href="#linear-gradient"/>
    <linearGradient id="linear-gradient-73" x1="-1.876" y1="16.915" x2="4.059" y2="-23.948" xlink:href="#linear-gradient"/>
    <linearGradient id="linear-gradient-74" x1="-2.58" y1="7.281" x2="3.577" y2="-6.273" xlink:href="#linear-gradient"/>
    <linearGradient id="linear-gradient-75" x1="-1.782" y1="9.445" x2="1.94" y2="-5.359" xlink:href="#linear-gradient"/>
    <linearGradient id="linear-gradient-76" x1="-1.865" y1="17.718" x2="4.103" y2="-25.527" xlink:href="#linear-gradient"/>
    <linearGradient id="linear-gradient-77" x1="-6.88" y1="11.497" x2="6.566" y2="-8.539" xlink:href="#linear-gradient"/>
    <linearGradient id="linear-gradient-78" x1="-3.574" y1="23.875" x2="2.981" y2="-13.818" xlink:href="#linear-gradient"/>
    <linearGradient id="linear-gradient-79" x1="-2.542" y1="6.606" x2="3.615" y2="-5.753" xlink:href="#linear-gradient"/>
    <linearGradient id="linear-gradient-80" x1="-15.017" y1="19.912" x2="14.109" y2="-16.525" xlink:href="#linear-gradient"/>
    <linearGradient id="linear-gradient-81" x1="-1.851" y1="18.416" x2="4.145" y2="-27.015" xlink:href="#linear-gradient"/>
    <linearGradient id="linear-gradient-82" x1="-3.507" y1="20.704" x2="3.048" y2="-12.409" xlink:href="#linear-gradient"/>
    <linearGradient id="linear-gradient-83" x1="-2.504" y1="6.091" x2="3.654" y2="-5.37" xlink:href="#linear-gradient"/>
    <linearGradient id="linear-gradient-84" x1="-2.466" y1="5.698" x2="3.691" y2="-5.093" xlink:href="#linear-gradient"/>
    <linearGradient id="linear-gradient-85" x1="-3.443" y1="18.452" x2="3.111" y2="-11.436" xlink:href="#linear-gradient"/>
    <linearGradient id="linear-gradient-86" x1="-1.834" y1="18.938" x2="4.186" y2="-28.305" xlink:href="#linear-gradient"/>
    <linearGradient id="linear-gradient-87" x1="-1.813" y1="19.174" x2="4.225" y2="-29.22" xlink:href="#linear-gradient"/>
    <linearGradient id="linear-gradient-88" x1="-3.383" y1="16.833" x2="3.172" y2="-10.774" xlink:href="#linear-gradient"/>
    <linearGradient id="linear-gradient-89" x1="-2.429" y1="5.407" x2="3.728" y2="-4.909" xlink:href="#linear-gradient"/>
    <linearGradient id="linear-gradient-90" x1="-1.788" y1="19.012" x2="4.261" y2="-29.568" xlink:href="#linear-gradient"/>
    <linearGradient id="linear-gradient-91" x1="-2.393" y1="5.205" x2="3.764" y2="-4.806" xlink:href="#linear-gradient"/>
    <linearGradient id="linear-gradient-92" x1="-3.327" y1="15.714" x2="3.228" y2="-10.374" xlink:href="#linear-gradient"/>
    <linearGradient id="linear-gradient-93" x1="-2.674" y1="14.789" x2="2.906" y2="-10.392" xlink:href="#linear-gradient"/>
    <linearGradient id="linear-gradient-94" x1="-1.76" y1="18.584" x2="4.295" y2="-29.622" xlink:href="#linear-gradient"/>
    <linearGradient id="linear-gradient-95" x1="-2.363" y1="4.989" x2="3.794" y2="-4.665" xlink:href="#linear-gradient"/>
    <linearGradient id="linear-gradient-96" x1="-2.331" y1="4.91" x2="3.826" y2="-4.682" xlink:href="#linear-gradient"/>
    <linearGradient id="linear-gradient-97" x1="-2.286" y1="14.247" x2="2.709" y2="-10.669" xlink:href="#linear-gradient"/>
    <linearGradient id="linear-gradient-98" x1="-1.728" y1="17.465" x2="4.328" y2="-28.445" xlink:href="#linear-gradient"/>
    <linearGradient id="linear-gradient-99" x1="-2.045" y1="14.072" x2="2.589" y2="-11.145" xlink:href="#linear-gradient"/>
    <linearGradient id="linear-gradient-100" x1="-1.679" y1="17.641" x2="4.355" y2="-29.517" xlink:href="#linear-gradient"/>
    <linearGradient id="linear-gradient-101" x1="-2.28" y1="4.755" x2="3.877" y2="-4.668" xlink:href="#linear-gradient"/>
    <linearGradient id="linear-gradient-102" x1="-1.618" y1="18.094" x2="4.362" y2="-31.057" xlink:href="#linear-gradient"/>
    <linearGradient id="linear-gradient-103" x1="-2.224" y1="4.756" x2="3.933" y2="-4.864" xlink:href="#linear-gradient"/>
    <linearGradient id="linear-gradient-104" x1="-1.85" y1="13.937" x2="2.491" y2="-11.644" xlink:href="#linear-gradient"/>
    <linearGradient id="linear-gradient-105" x1="-1.552" y1="18.657" x2="4.353" y2="-32.949" xlink:href="#linear-gradient"/>
    <linearGradient id="linear-gradient-106" x1="-1.678" y1="11.801" x2="2.403" y2="-10.091" xlink:href="#linear-gradient"/>
    <linearGradient id="linear-gradient-107" x1="-2.17" y1="4.694" x2="3.987" y2="-4.977" xlink:href="#linear-gradient"/>
    <linearGradient id="linear-gradient-108" x1="-1.521" y1="9.666" x2="2.32" y2="-8.342" xlink:href="#linear-gradient"/>
    <linearGradient id="linear-gradient-109" x1="-1.476" y1="19.387" x2="4.318" y2="-35.178" xlink:href="#linear-gradient"/>
    <linearGradient id="linear-gradient-110" x1="-2.117" y1="4.667" x2="4.044" y2="-5.144" xlink:href="#linear-gradient"/>
    <linearGradient id="linear-gradient-111" x1="-1.375" y1="8.157" x2="2.241" y2="-7.102" xlink:href="#linear-gradient"/>
    <linearGradient id="linear-gradient-112" x1="-1.435" y1="20.283" x2="4.358" y2="-37.989" xlink:href="#linear-gradient"/>
    <linearGradient id="linear-gradient-113" x1="-2.073" y1="4.691" x2="4.116" y2="-5.393" xlink:href="#linear-gradient"/>
    <linearGradient id="linear-gradient-114" x1="-2.039" y1="4.768" x2="4.206" y2="-5.735" xlink:href="#linear-gradient"/>
    <linearGradient id="linear-gradient-115" x1="-1.452" y1="21.354" x2="4.538" y2="-41.629" xlink:href="#linear-gradient"/>
    <linearGradient id="linear-gradient-116" x1="-1.235" y1="7.016" x2="2.161" y2="-6.16" xlink:href="#linear-gradient"/>
    <linearGradient id="linear-gradient-117" x1="-1.486" y1="22.81" x2="4.762" y2="-46.322" xlink:href="#linear-gradient"/>
    <linearGradient id="linear-gradient-118" x1="-1.095" y1="6.062" x2="2.078" y2="-5.359" xlink:href="#linear-gradient"/>
    <linearGradient id="linear-gradient-119" x1="-2.013" y1="4.899" x2="4.315" y2="-6.185" xlink:href="#linear-gradient"/>
    <linearGradient id="linear-gradient-120" x1="-1.996" y1="5.089" x2="4.444" y2="-6.763" xlink:href="#linear-gradient"/>
    <linearGradient id="linear-gradient-121" x1="-1.543" y1="23.553" x2="5.045" y2="-49.85" xlink:href="#linear-gradient"/>
    <linearGradient id="linear-gradient-122" x1="-0.961" y1="5.243" x2="1.995" y2="-4.646" xlink:href="#linear-gradient"/>
    <linearGradient id="linear-gradient-123" x1="-1.639" y1="24.988" x2="5.434" y2="-55.211" xlink:href="#linear-gradient"/>
    <linearGradient id="linear-gradient-124" x1="-0.934" y1="5.389" x2="2.011" y2="-4.948" xlink:href="#linear-gradient"/>
    <linearGradient id="linear-gradient-125" x1="-1.962" y1="5.331" x2="4.563" y2="-7.478" xlink:href="#linear-gradient"/>
    <linearGradient id="linear-gradient-126" x1="-1.897" y1="5.617" x2="4.646" y2="-8.349" xlink:href="#linear-gradient"/>
    <linearGradient id="linear-gradient-127" x1="-1.822" y1="27.838" x2="6.065" y2="-64.441" xlink:href="#linear-gradient"/>
    <linearGradient id="linear-gradient-128" x1="-0.954" y1="5.579" x2="2.113" y2="-5.4" xlink:href="#linear-gradient"/>
    <linearGradient id="linear-gradient-129" x1="-1.81" y1="5.948" x2="4.7" y2="-9.412" xlink:href="#linear-gradient"/>
    <linearGradient id="linear-gradient-130" x1="-1.026" y1="5.755" x2="2.318" y2="-5.944" xlink:href="#linear-gradient"/>
    <linearGradient id="linear-gradient-131" x1="-2.181" y1="38.157" x2="7.181" y2="-93.14" xlink:href="#linear-gradient"/>
    <linearGradient id="linear-gradient-132" x1="-2.903" y1="34.409" x2="9.346" y2="-88.188" xlink:href="#linear-gradient"/>
    <linearGradient id="linear-gradient-133" x1="-1.121" y1="5.937" x2="2.579" y2="-6.58" xlink:href="#linear-gradient"/>
    <linearGradient id="linear-gradient-134" x1="-1.665" y1="6.096" x2="4.663" y2="-10.232" xlink:href="#linear-gradient"/>
    <linearGradient id="linear-gradient-135" x1="-3.033" y1="11.012" x2="14.511" y2="-40.718" xlink:href="#linear-gradient"/>
    <linearGradient id="linear-gradient-136" x1="-1.242" y1="6.13" x2="2.907" y2="-7.325" xlink:href="#linear-gradient"/>
    <linearGradient id="linear-gradient-137" x1="-6.184" y1="38.446" x2="18.987" y2="-105.873" xlink:href="#linear-gradient"/>
    <linearGradient id="linear-gradient-138" x1="-1.276" y1="6.903" x2="8.172" y2="-26.836" xlink:href="#linear-gradient"/>
    <linearGradient id="linear-gradient-139" x1="-1.443" y1="6.505" x2="4.506" y2="-11.798" xlink:href="#linear-gradient"/>
    <linearGradient id="linear-gradient-140" x1="-0.544" y1="5.34" x2="5.124" y2="-20.833" xlink:href="#linear-gradient"/>
    <linearGradient id="linear-gradient-141" x1="-1.4" y1="6.335" x2="3.334" y2="-8.21" xlink:href="#linear-gradient"/>
    <linearGradient id="linear-gradient-142" x1="-1.011" y1="7.006" x2="3.959" y2="-14.256" xlink:href="#linear-gradient"/>
    <linearGradient id="linear-gradient-143" x1="-0.072" y1="6.706" x2="2.433" y2="-18.71" xlink:href="#linear-gradient"/>
    <linearGradient id="linear-gradient-144" x1="-1.602" y1="6.695" x2="3.885" y2="-9.468" xlink:href="#linear-gradient"/>
    <linearGradient id="linear-gradient-145" x1="-0.081" y1="7.398" x2="2.558" y2="-22.377" xlink:href="#linear-gradient"/>
    <linearGradient id="linear-gradient-146" x1="-1.86" y1="7.523" x2="4.608" y2="-11.688" xlink:href="#linear-gradient"/>
    <linearGradient id="linear-gradient-147" x1="-2.23" y1="9.344" x2="5.655" y2="-16.11" xlink:href="#linear-gradient"/>
    <linearGradient id="linear-gradient-148" x1="-0.107" y1="8.432" x2="2.745" y2="-27.549" xlink:href="#linear-gradient"/>
    <linearGradient id="linear-gradient-149" x1="-3.276" y1="15.068" x2="8.402" y2="-29.751" xlink:href="#linear-gradient"/>
    <linearGradient id="linear-gradient-150" x1="-0.151" y1="9.825" x2="3.011" y2="-34.662" xlink:href="#linear-gradient"/>
    <linearGradient id="linear-gradient-151" x1="-0.226" y1="11.751" x2="3.435" y2="-44.674" xlink:href="#linear-gradient"/>
    <linearGradient id="linear-gradient-152" x1="-0.394" y1="17.823" x2="4.322" y2="-74.135" xlink:href="#linear-gradient"/>
    <linearGradient id="linear-gradient-153" x1="-1.068" y1="27.761" x2="7.61" y2="-124.61" xlink:href="#linear-gradient"/>
  </defs>
  <g id="Group_49" data-name="Group 49" transform="translate(-509.91 -13.719)">
    <path id="Path_221" data-name="Path 221" d="M812.177,13.872q.384-.084.772-.153l-.6.027c-1.9.086-3.8.137-5.7.17a1.234,1.234,0,0,0-.1.132C808.418,14.013,810.3,13.96,812.177,13.872Z" transform="translate(-281.876)" fill="url(#linear-gradient)"/>
    <path id="Path_222" data-name="Path 222" d="M805.76,27.361q.213-.072.428-.14-1.948.083-3.892.126a1.226,1.226,0,0,0-.017.129Q804.019,27.433,805.76,27.361Z" transform="translate(-277.827 -12.83)" fill="url(#linear-gradient-2)"/>
    <path id="Path_223" data-name="Path 223" d="M804.036,40.133q.161-.07.323-.137-1.084.045-2.167.078V40.2Q803.114,40.171,804.036,40.133Z" transform="translate(-277.744 -24.97)" fill="url(#linear-gradient-3)"/>
    <path id="Path_224" data-name="Path 224" d="M936.925,28.83q-.457-.035-.917-.049c-1.3.068-2.6.153-3.9.245q-.539.081-1.068.189l.114-.008C933.071,29.061,935,28.924,936.925,28.83Z" transform="translate(-400.178 -14.313)" fill="url(#linear-gradient-4)"/>
    <path id="Path_225" data-name="Path 225" d="M802.979,52.6l-.787.032v.126l.516-.021Z" transform="translate(-277.744 -36.943)" fill="url(#linear-gradient-5)"/>
    <path id="Path_226" data-name="Path 226" d="M881.235,35.119c2.6-.235,5.215-.461,7.83-.562q-.2-.037-.391-.07c-2.5.1-5.005.31-7.5.527q-1.251.109-2.5.19-.224.071-.446.147Q879.732,35.253,881.235,35.119Z" transform="translate(-350.004 -19.735)" fill="url(#linear-gradient-6)"/>
    <path id="Path_227" data-name="Path 227" d="M849.511,41.79c2.986-.315,5.993-.631,9-.715L858.231,41c-2.935.09-5.867.386-8.782.683-1.528.156-3.048.277-4.567.371q-.164.069-.326.141C846.2,42.1,847.853,41.965,849.511,41.79Z" transform="translate(-318.001 -25.927)" fill="url(#linear-gradient-7)"/>
    <path id="Path_228" data-name="Path 228" d="M824.373,48.482a94.468,94.468,0,0,1,9.835-.859l-.227-.071c-3.234.06-6.469.451-9.672.828-2.093.246-4.169.421-6.244.548l-.269.14C819.982,48.935,822.168,48.749,824.373,48.482Z" transform="translate(-292.572 -32.15)" fill="url(#linear-gradient-8)"/>
    <path id="Path_229" data-name="Path 229" d="M798.645,55.066c-2.412.322-4.827.649-7.255.827-.229.017-.458.031-.687.044l-.228.141q.485-.025.969-.061c2.433-.184,4.851-.52,7.268-.851a78.471,78.471,0,0,1,10.483-1L809,54.1A81.542,81.542,0,0,0,798.645,55.066Z" transform="translate(-266.61 -38.372)" fill="url(#linear-gradient-9)"/>
    <path id="Path_230" data-name="Path 230" d="M780.756,61.734c-2.431.362-4.863.729-7.313.937-.639.054-1.278.09-1.917.114l-.2.137c.724-.026,1.446-.065,2.169-.127,2.454-.214,4.891-.59,7.326-.961a66.7,66.7,0,0,1,11.015-1.126l-.175-.072A68.989,68.989,0,0,0,780.756,61.734Z" transform="translate(-248.415 -44.582)" fill="url(#linear-gradient-10)"/>
    <path id="Path_231" data-name="Path 231" d="M764.961,68.34c-2.449.4-4.9.811-7.371,1.047-1.009.1-2.019.143-3.03.171l-.176.135c1.088-.028,2.175-.076,3.26-.182,2.476-.243,4.931-.66,7.384-1.071A57.743,57.743,0,0,1,776.5,67.191l-.162-.073A59.5,59.5,0,0,0,764.961,68.34Z" transform="translate(-232.314 -50.73)" fill="url(#linear-gradient-11)"/>
    <path id="Path_232" data-name="Path 232" d="M750.786,74.948c-2.467.442-4.936.892-7.43,1.157-1.348.143-2.7.192-4.051.221l-.159.135c1.423-.029,2.845-.078,4.264-.232,2.5-.272,4.972-.73,7.442-1.181,3.862-.7,7.919-1.6,11.888-1.364l-.153-.076C758.645,73.4,754.625,74.26,750.786,74.948Z" transform="translate(-217.834 -56.88)" fill="url(#linear-gradient-12)"/>
    <path id="Path_233" data-name="Path 233" d="M737.83,81.683c-2.484.481-4.972.971-7.487,1.265-1.663.194-3.331.235-5,.269l-.146.136c1.736-.036,3.47-.074,5.2-.28,2.52-.3,5.011-.8,7.5-1.288,3.963-.78,8.194-1.816,12.285-1.466l-.15-.081C745.964,79.916,741.772,80.92,737.83,81.683Z" transform="translate(-204.579 -63.152)" fill="url(#linear-gradient-13)"/>
    <path id="Path_234" data-name="Path 234" d="M718.342,90.109c2.541-.327,5.049-.865,7.554-1.393,4.059-.855,8.478-2.045,12.683-1.55l-.151-.087c-4.18-.461-8.556.7-12.594,1.534-2.5.519-5.006,1.049-7.542,1.37a57.639,57.639,0,0,1-5.888.318l-.136.137A59.059,59.059,0,0,0,718.342,90.109Z" transform="translate(-192.294 -69.611)" fill="url(#linear-gradient-14)"/>
    <path id="Path_235" data-name="Path 235" d="M707.063,97.44c2.561-.354,5.086-.929,7.607-1.493,4.158-.93,8.784-2.285,13.1-1.611l-.152-.1c-4.292-.631-8.871.687-13.007,1.6-2.518.556-5.039,1.124-7.6,1.472a65.06,65.06,0,0,1-6.72.371l-.128.14A67.017,67.017,0,0,0,707.063,97.44Z" transform="translate(-180.795 -76.36)" fill="url(#linear-gradient-15)"/>
    <path id="Path_236" data-name="Path 236" d="M688.9,105.585c2.529-.116,5.054-.068,7.565-.436,2.581-.378,5.121-.989,7.657-1.588,4.267-1.007,9.132-2.541,13.559-1.637l-.157-.107c-4.4-.849-9.214.645-13.456,1.635-2.533.591-5.07,1.195-7.646,1.567-2.49.36-4.994.317-7.5.428l-.121.143Z" transform="translate(-169.991 -83.477)" fill="url(#linear-gradient-16)"/>
    <path id="Path_237" data-name="Path 237" d="M678.93,113.781a72.416,72.416,0,0,0,7.592-.46c2.6-.4,5.153-1.045,7.7-1.675,4.4-1.087,9.541-2.817,14.081-1.611l-.169-.125c-4.515-1.132-9.6.554-13.96,1.622-2.547.624-5.1,1.262-7.694,1.657a73.087,73.087,0,0,1-7.586.455l-.643.032-.112.145Z" transform="translate(-159.863 -91.049)" fill="url(#linear-gradient-17)"/>
    <path id="Path_238" data-name="Path 238" d="M669.591,122.526a69.7,69.7,0,0,0,7.612-.479c2.615-.419,5.183-1.1,7.745-1.755,4.484-1.155,9.87-3.062,14.474-1.58.074.024.147.049.22.074l-.186-.15-.083-.027c-4.609-1.466-9.978.418-14.468,1.565-2.56.654-5.125,1.323-7.737,1.739a70.245,70.245,0,0,1-7.608.476q-.646.032-1.293.069l-.106.147Q668.877,122.562,669.591,122.526Z" transform="translate(-150.382 -99.163)" fill="url(#linear-gradient-18)"/>
    <path id="Path_239" data-name="Path 239" d="M660.9,131.916a67.638,67.638,0,0,0,7.627-.492c2.631-.436,5.21-1.139,7.783-1.826,4.456-1.189,9.917-3.195,14.5-1.646.241.081.476.173.706.272a1.346,1.346,0,0,0-.082-.13q-.326-.137-.665-.252c-4.588-1.535-10.033.451-14.495,1.632-2.571.681-5.148,1.379-7.775,1.811a68.034,68.034,0,0,1-7.624.49q-.946.048-1.891.108l-.1.148Q659.891,131.969,660.9,131.916Z" transform="translate(-141.564 -107.915)" fill="url(#linear-gradient-19)"/>
    <path id="Path_240" data-name="Path 240" d="M652.773,210.7a66.142,66.142,0,0,0,7.634-.5c.745-.126,1.485-.275,2.223-.44q.234-.13.473-.251c-.9.208-1.806.4-2.717.549a66.42,66.42,0,0,1-7.633.5q-1.218.064-2.436.147l-.092.15Q651.5,210.771,652.773,210.7Z" transform="translate(-133.336 -186.056)" fill="url(#linear-gradient-20)"/>
    <path id="Path_241" data-name="Path 241" d="M1028.758,137.828c-4.522-1.574-9.966.435-14.377,1.652q.262-.011.526-.012c4.315-1.229,9.535-3.048,13.885-1.523.237.083.468.176.693.278,0-.036-.006-.073-.011-.109C1029.24,138.009,1029,137.913,1028.758,137.828Z" transform="translate(-479.378 -117.387)" fill="url(#linear-gradient-21)"/>
    <path id="Path_242" data-name="Path 242" d="M645.235,231.064a65.181,65.181,0,0,0,7.633-.5c.212-.036.423-.075.634-.115q.135-.1.273-.2-.46.09-.921.17a65.355,65.355,0,0,1-7.634.5q-1.464.078-2.927.184l-.084.151Q643.722,231.147,645.235,231.064Z" transform="translate(-125.718 -205.763)" fill="url(#linear-gradient-22)"/>
    <path id="Path_243" data-name="Path 243" d="M1066.083,148.656c-3.9-1.4-8.544-.033-12.57,1.164q.166.018.332.039c3.952-1.178,8.463-2.443,12.263-1.078q.245.088.482.191c.014-.033.026-.066.036-.1C1066.448,148.795,1066.268,148.722,1066.083,148.656Z" transform="translate(-516.564 -127.664)" fill="url(#linear-gradient-23)"/>
    <path id="Path_244" data-name="Path 244" d="M1092.891,160.413c-3.477-1.262-7.569-.293-11.269.8q.137.029.273.062c3.631-1.06,7.616-1.957,11.011-.723l.076.029.074-.077.016-.017Z" transform="translate(-543.275 -138.831)" fill="url(#linear-gradient-24)"/>
    <path id="Path_245" data-name="Path 245" d="M638.225,248.547c2.4-.129,4.8-.06,7.175-.415q.1-.091.2-.181a70.329,70.329,0,0,1-7.385.45c-1.121.06-2.242.135-3.362.219l-.078.153C635.924,248.686,637.074,248.609,638.225,248.547Z" transform="translate(-118.654 -222.581)" fill="url(#linear-gradient-25)"/>
    <path id="Path_246" data-name="Path 246" d="M901.582,221.219v-.147c-1.021.284-2.045.557-3.077.8-.133.078-.265.157-.4.24C899.275,221.847,900.431,221.541,901.582,221.219Z" transform="translate(-368.891 -197.039)" fill="url(#linear-gradient-26)"/>
    <path id="Path_247" data-name="Path 247" d="M872.055,236.085c1.606-.312,3.192-.724,4.768-1.165v-.143c-1.5.425-3.018.823-4.55,1.129Q872.163,235.994,872.055,236.085Z" transform="translate(-344.132 -210.063)" fill="url(#linear-gradient-27)"/>
    <path id="Path_248" data-name="Path 248" d="M631.742,264.638c2.13-.115,4.259-.072,6.374-.309l.145-.154c-2.16.254-4.339.2-6.513.315-1.247.067-2.494.153-3.74.249l-.072.155C629.2,264.795,630.473,264.706,631.742,264.638Z" transform="translate(-112.155 -237.997)" fill="url(#linear-gradient-28)"/>
    <path id="Path_249" data-name="Path 249" d="M1105.665,173.676q.129.041.257.084c3.159-.861,6.507-1.455,9.445-.548l.113-.118C1112.434,172.11,1108.938,172.764,1105.665,173.676Z" transform="translate(-566.122 -150.982)" fill="url(#linear-gradient-29)"/>
    <path id="Path_250" data-name="Path 250" d="M856.578,248.864c1.815-.324,3.608-.757,5.392-1.222v-.135c-1.786.473-3.58.914-5.4,1.238-.05.048-.1.1-.147.145Z" transform="translate(-329.278 -222.159)" fill="url(#linear-gradient-30)"/>
    <path id="Path_251" data-name="Path 251" d="M1135.206,189.535c-.689.119-1.374.256-2.057.406q.131.057.26.117c.6-.126,1.2-.243,1.8-.346a14.511,14.511,0,0,1,5.678-.12l.139-.146A14.28,14.28,0,0,0,1135.206,189.535Z" transform="translate(-592.239 -166.734)" fill="url(#linear-gradient-31)"/>
    <path id="Path_252" data-name="Path 252" d="M625.868,277.809c1.983-.114,3.946-.128,5.907-.329l.111-.133c-1.99.207-3.984.21-5.994.324-1.329.075-2.657.174-3.985.284l-.062.147C623.186,277.987,624.526,277.886,625.868,277.809Z" transform="translate(-106.368 -250.514)" fill="url(#linear-gradient-32)"/>
    <path id="Path_253" data-name="Path 253" d="M616.689,289.879l-.053.138c1.377-.127,2.755-.243,4.133-.33,1.887-.119,3.744-.175,5.6-.361l.091-.122c-1.878.187-3.754.235-5.659.353C619.433,289.642,618.061,289.754,616.689,289.879Z" transform="translate(-101.417 -261.783)" fill="url(#linear-gradient-33)"/>
    <path id="Path_254" data-name="Path 254" d="M1157.578,206.528q-.437.072-.873.152.125.07.25.143.308-.054.616-.1a16.238,16.238,0,0,1,4.993-.233l.163-.171A15.749,15.749,0,0,0,1157.578,206.528Z" transform="translate(-614.624 -182.89)" fill="url(#linear-gradient-34)"/>
    <path id="Path_255" data-name="Path 255" d="M845.458,261.106c1.8-.318,3.594-.714,5.378-1.133v-.132c-1.782.429-3.57.833-5.375,1.153-.213.038-.425.072-.637.1-.039.043-.078.085-.116.128C844.957,261.189,845.207,261.15,845.458,261.106Z" transform="translate(-318.144 -233.88)" fill="url(#linear-gradient-35)"/>
    <path id="Path_256" data-name="Path 256" d="M1179.375,225.049q.12.083.24.17a17.779,17.779,0,0,1,3.671-.208l.189-.2A17.748,17.748,0,0,0,1179.375,225.049Z" transform="translate(-636.166 -200.554)" fill="url(#linear-gradient-36)"/>
    <path id="Path_257" data-name="Path 257" d="M616.329,300.579c1.831-.131,3.632-.219,5.436-.4l.075-.111c-1.813.181-3.622.263-5.463.391-1.386.1-2.771.223-4.155.362l-.045.13C613.56,300.807,614.944,300.678,616.329,300.579Z" transform="translate(-97.18 -272.105)" fill="url(#linear-gradient-37)"/>
    <path id="Path_258" data-name="Path 258" d="M835.592,273.149c-.031.038-.062.076-.093.115.387-.052.774-.11,1.162-.175,1.815-.306,3.621-.661,5.424-1.029v-.13c-1.8.379-3.6.744-5.409,1.053Q836.133,273.075,835.592,273.149Z" transform="translate(-309.394 -245.368)" fill="url(#linear-gradient-38)"/>
    <path id="Path_259" data-name="Path 259" d="M829.479,284.9c1.845-.288,3.686-.6,5.527-.906v-.129c-1.831.323-3.663.642-5.5.935-.462.073-.922.138-1.382.2l-.076.1Q828.763,285.014,829.479,284.9Z" transform="translate(-302.315 -256.712)" fill="url(#linear-gradient-39)"/>
    <path id="Path_260" data-name="Path 260" d="M1201.143,244.91q.116.1.23.2c.557-.05,1.109-.082,1.659-.082l.214-.225A18.26,18.26,0,0,0,1201.143,244.91Z" transform="translate(-656.851 -219.588)" fill="url(#linear-gradient-40)"/>
    <path id="Path_261" data-name="Path 261" d="M612.449,310.544c1.81-.148,3.594-.266,5.38-.45l.063-.1c-1.787.182-3.572.295-5.384.438-1.371.109-2.74.249-4.109.4l-.038.122C609.723,310.8,611.085,310.655,612.449,310.544Z" transform="translate(-93.554 -281.536)" fill="url(#linear-gradient-41)"/>
    <path id="Path_262" data-name="Path 262" d="M823.451,296.675q2.837-.4,5.679-.762v-.13q-2.822.388-5.642.8-.782.112-1.562.205l-.061.1Q822.657,296.785,823.451,296.675Z" transform="translate(-296.438 -268.035)" fill="url(#linear-gradient-42)"/>
    <path id="Path_263" data-name="Path 263" d="M609.044,319.676c1.817-.171,3.617-.319,5.419-.507l.053-.093c-1.8.187-3.59.329-5.4.494-1.331.121-2.659.275-3.987.443l-.033.115C606.408,319.957,607.725,319.8,609.044,319.676Z" transform="translate(-90.448 -290.169)" fill="url(#linear-gradient-43)"/>
    <path id="Path_264" data-name="Path 264" d="M818.319,308.49c1.954-.235,3.913-.429,5.874-.594v-.131q-2.919.275-5.828.633-.821.1-1.641.193l-.053.088Q817.494,308.588,818.319,308.49Z" transform="translate(-291.502 -279.42)" fill="url(#linear-gradient-44)"/>
    <path id="Path_265" data-name="Path 265" d="M606.064,328.059c1.848-.2,3.692-.378,5.536-.572l.046-.086c-1.833.193-3.665.365-5.505.558-1.269.133-2.535.3-3.8.478l-.028.108C603.561,328.363,604.812,328.195,606.064,328.059Z" transform="translate(-87.806 -298.08)" fill="url(#linear-gradient-45)"/>
    <path id="Path_266" data-name="Path 266" d="M820.018,320.069c-2.567.133-5.131.341-7.691.593l-.05.089c2.576-.247,5.158-.44,7.741-.547Z" transform="translate(-287.327 -291.112)" fill="url(#linear-gradient-46)"/>
    <path id="Path_267" data-name="Path 267" d="M603.448,335.476c1.9-.237,3.814-.459,5.726-.656l.042-.085c-1.9.2-3.793.417-5.684.645-1.188.143-2.374.318-3.558.507l-.024.1C601.114,335.8,602.28,335.621,603.448,335.476Z" transform="translate(-85.561 -305.049)" fill="url(#linear-gradient-47)"/>
    <path id="Path_268" data-name="Path 268" d="M607.1,342.434l.036-.079c-1.971.189-3.937.426-5.9.7-1.091.151-2.179.331-3.266.525l-.02.094c1.063-.194,2.128-.375,3.2-.527C603.131,342.861,605.116,342.621,607.1,342.434Z" transform="translate(-83.666 -312.29)" fill="url(#linear-gradient-48)"/>
    <path id="Path_269" data-name="Path 269" d="M816.059,332.739V332.6c-2.64.011-5.276.144-7.906.367l-.043.084C810.754,332.836,813.4,332.722,816.059,332.739Z" transform="translate(-283.368 -303.021)" fill="url(#linear-gradient-49)"/>
    <path id="Path_270" data-name="Path 270" d="M599.125,350.351c2.072-.336,4.147-.6,6.226-.767l.031-.075c-2.058.175-4.112.43-6.162.754-.981.155-1.958.335-2.933.529l-.017.087C597.219,350.685,598.17,350.505,599.125,350.351Z" transform="translate(-82.064 -319.088)" fill="url(#linear-gradient-50)"/>
    <path id="Path_271" data-name="Path 271" d="M812.611,344.262v-.143a69.948,69.948,0,0,0-8.093.1l-.036.079A65.793,65.793,0,0,1,812.611,344.262Z" transform="translate(-279.92 -313.897)" fill="url(#linear-gradient-51)"/>
    <path id="Path_272" data-name="Path 272" d="M810.435,353.749V353.6a54.326,54.326,0,0,0-8.243-.205v.076A51.852,51.852,0,0,1,810.435,353.749Z" transform="translate(-277.744 -322.715)" fill="url(#linear-gradient-52)"/>
    <path id="Path_273" data-name="Path 273" d="M597.337,357.2a58.407,58.407,0,0,1,6.534-.828l.027-.072a62.092,62.092,0,0,0-6.463.815c-.859.153-1.714.329-2.567.516,0,.027-.01.054-.015.08C595.678,357.526,596.506,357.353,597.337,357.2Z" transform="translate(-80.718 -325.541)" fill="url(#linear-gradient-53)"/>
    <path id="Path_274" data-name="Path 274" d="M595.759,363.812a45.833,45.833,0,0,1,6.868-.891l.025-.07a48.091,48.091,0,0,0-6.793.877c-.728.146-1.453.311-2.176.485,0,.025-.008.049-.012.074C594.364,364.117,595.06,363.956,595.759,363.812Z" transform="translate(-79.595 -331.766)" fill="url(#linear-gradient-54)"/>
    <path id="Path_275" data-name="Path 275" d="M810.435,362.131v-.154a44.767,44.767,0,0,0-8.243-.547v.076A43.2,43.2,0,0,1,810.435,362.131Z" transform="translate(-277.744 -330.402)" fill="url(#linear-gradient-55)"/>
    <path id="Path_276" data-name="Path 276" d="M802.192,368.773v.078a37.533,37.533,0,0,1,8.243.993v-.159A38.581,38.581,0,0,0,802.192,368.773Z" transform="translate(-277.744 -337.394)" fill="url(#linear-gradient-56)"/>
    <path id="Path_277" data-name="Path 277" d="M594.361,370.354a37.7,37.7,0,0,1,7.219-.95l.023-.07a39.224,39.224,0,0,0-7.141.937c-.591.133-1.179.279-1.765.434,0,.023-.007.046-.01.069C593.243,370.625,593.8,370.484,594.361,370.354Z" transform="translate(-78.66 -337.927)" fill="url(#linear-gradient-57)"/>
    <path id="Path_278" data-name="Path 278" d="M593.117,376.9a32.108,32.108,0,0,1,7.58-1.007c.007-.024.014-.047.021-.071a33.172,33.172,0,0,0-7.5.995q-.675.169-1.343.36l-.009.064Q592.489,377.06,593.117,376.9Z" transform="translate(-77.88 -344.091)" fill="url(#linear-gradient-58)"/>
    <path id="Path_279" data-name="Path 279" d="M810.435,377.525v-.165a34.4,34.4,0,0,0-8.243-1.289v.081A33.683,33.683,0,0,1,810.435,377.525Z" transform="translate(-277.744 -344.33)" fill="url(#linear-gradient-59)"/>
    <path id="Path_280" data-name="Path 280" d="M1147.759,463.323h-2.016a33.24,33.24,0,0,0,6.291.4q1.2.025,2.4.07a1.143,1.143,0,0,0-.252-.262c-.7-.032-1.4-.06-2.1-.08C1150.627,463.41,1149.189,463.437,1147.759,463.323Z" transform="translate(-604.207 -427.241)" fill="url(#linear-gradient-60)"/>
    <path id="Path_281" data-name="Path 281" d="M1081.438,464.7a23.25,23.25,0,0,1-6.739-.531c-.838-.24-1.659-.53-2.473-.843h-.536c-.026,0-.051,0-.076,0a31.961,31.961,0,0,0,3.036,1.1,21.911,21.911,0,0,0,6.745.54l2.8-.037v-.244Q1082.818,464.689,1081.438,464.7Z" transform="translate(-533.765 -427.241)" fill="url(#linear-gradient-61)"/>
    <path id="Path_282" data-name="Path 282" d="M592,383.581a28.075,28.075,0,0,1,7.944-1.056l.02-.073A28.849,28.849,0,0,0,592.1,383.5q-.46.127-.917.266l-.007.061Q591.583,383.7,592,383.581Z" transform="translate(-77.221 -350.392)" fill="url(#linear-gradient-62)"/>
    <path id="Path_283" data-name="Path 283" d="M810.435,385.5v-.17a31.524,31.524,0,0,0-8.243-1.677v.085A31.022,31.022,0,0,1,810.435,385.5Z" transform="translate(-277.744 -351.533)" fill="url(#linear-gradient-63)"/>
    <path id="Path_284" data-name="Path 284" d="M590.979,390.3a25.089,25.089,0,0,1,8.3-1.1c.006-.026.012-.051.019-.077a25.668,25.668,0,0,0-8.226,1.091q-.247.075-.492.154l-.006.059Q590.779,390.365,590.979,390.3Z" transform="translate(-76.657 -356.724)" fill="url(#linear-gradient-64)"/>
    <path id="Path_285" data-name="Path 285" d="M1062.868,475.078a18.192,18.192,0,0,1-6.764-.571,34.046,34.046,0,0,1-3.728-1.56,1.084,1.084,0,0,0-.1.186,34.09,34.09,0,0,0,3.78,1.633,17.37,17.37,0,0,0,6.769.58c1-.047,2-.1,3-.165v-.239Q1064.345,475.017,1062.868,475.078Z" transform="translate(-515.39 -436.386)" fill="url(#linear-gradient-65)"/>
    <path id="Path_286" data-name="Path 286" d="M810.435,393.874V393.7a29.491,29.491,0,0,0-8.243-2.066v.089A29.135,29.135,0,0,1,810.435,393.874Z" transform="translate(-277.744 -359.118)" fill="url(#linear-gradient-66)"/>
    <path id="Path_287" data-name="Path 287" d="M810.435,402.658v-.176a28.04,28.04,0,0,0-8.243-2.45v.1A27.754,27.754,0,0,1,810.435,402.658Z" transform="translate(-277.744 -367.098)" fill="url(#linear-gradient-67)"/>
    <path id="Path_288" data-name="Path 288" d="M1060.955,494.982a15.04,15.04,0,0,1-6.787-.61,32.35,32.35,0,0,1-3.706-1.763v.234a31.8,31.8,0,0,0,3.661,1.785,14.513,14.513,0,0,0,6.791.618c1.063-.084,2.124-.189,3.183-.3v-.233C1063.051,494.812,1062,494.907,1060.955,494.982Z" transform="translate(-513.665 -455.07)" fill="url(#linear-gradient-68)"/>
    <path id="Path_289" data-name="Path 289" d="M598.7,395.944l.018-.082a23.262,23.262,0,0,0-8.581,1.129l-.077.026c0,.019,0,.039-.005.058A22.89,22.89,0,0,1,598.7,395.944Z" transform="translate(-76.16 -363.102)" fill="url(#linear-gradient-69)"/>
    <path id="Path_290" data-name="Path 290" d="M1060.774,516.66a12.942,12.942,0,0,1-6.806-.646,30.011,30.011,0,0,1-3.506-1.853v.233a29.557,29.557,0,0,0,3.464,1.869,12.578,12.578,0,0,0,6.809.653c1.126-.121,2.246-.277,3.362-.446v-.226C1062.993,516.4,1061.886,516.548,1060.774,516.66Z" transform="translate(-513.665 -475.551)" fill="url(#linear-gradient-70)"/>
    <path id="Path_291" data-name="Path 291" d="M810.435,411.877V411.7a26.941,26.941,0,0,0-8.243-2.821v.1A26.741,26.741,0,0,1,810.435,411.877Z" transform="translate(-277.744 -375.505)" fill="url(#linear-gradient-71)"/>
    <path id="Path_292" data-name="Path 292" d="M589.591,403.88c0,.02,0,.041,0,.061a21.205,21.205,0,0,1,8.588-1.025l.017-.085A21.531,21.531,0,0,0,589.591,403.88Z" transform="translate(-75.713 -369.694)" fill="url(#linear-gradient-72)"/>
    <path id="Path_293" data-name="Path 293" d="M597.71,410.12l.015-.089a20.2,20.2,0,0,0-8.547.938c0,.022,0,.043,0,.065A19.957,19.957,0,0,1,597.71,410.12Z" transform="translate(-75.32 -376.497)" fill="url(#linear-gradient-73)"/>
    <path id="Path_294" data-name="Path 294" d="M802.192,418.122v.1a25.944,25.944,0,0,1,8.243,3.246v-.176A26.1,26.1,0,0,0,802.192,418.122Z" transform="translate(-277.744 -384.288)" fill="url(#linear-gradient-74)"/>
    <path id="Path_295" data-name="Path 295" d="M1060.6,538.192c-2.429.311-4.553.4-6.819-.679a28.165,28.165,0,0,1-3.322-1.922v.231a27.808,27.808,0,0,0,3.284,1.934c2.265,1.1,4.388,1.011,6.821.686,1.187-.159,2.361-.367,3.53-.593v-.218C1062.939,537.844,1061.777,538.041,1060.6,538.192Z" transform="translate(-513.665 -495.914)" fill="url(#linear-gradient-75)"/>
    <path id="Path_296" data-name="Path 296" d="M597.307,417.7c0-.031.009-.062.013-.094a19.219,19.219,0,0,0-8.5.829c0,.024,0,.047,0,.071A19.044,19.044,0,0,1,597.307,417.7Z" transform="translate(-74.981 -383.658)" fill="url(#linear-gradient-76)"/>
    <path id="Path_297" data-name="Path 297" d="M1053.618,558.653a26.655,26.655,0,0,1-3.156-1.975v.225a26.345,26.345,0,0,0,3.123,1.986l.108.055h.544Q1053.929,558.813,1053.618,558.653Z" transform="translate(-513.665 -515.952)" fill="url(#linear-gradient-77)"/>
    <path id="Path_298" data-name="Path 298" d="M1173.019,597.143a14.252,14.252,0,0,1-4.09.161v.254a14.024,14.024,0,0,0,4.058-.174c1.244-.2,2.468-.455,3.685-.737v-.21C1175.465,596.707,1174.251,596.956,1173.019,597.143Z" transform="translate(-626.24 -553.734)" fill="url(#linear-gradient-78)"/>
    <path id="Path_299" data-name="Path 299" d="M802.192,427.823a25.271,25.271,0,0,1,8.243,3.567v-.173a25.412,25.412,0,0,0-8.243-3.5Z" transform="translate(-277.744 -393.406)" fill="url(#linear-gradient-79)"/>
    <path id="Path_300" data-name="Path 300" d="M1050.462,577.355c0,.015,0,.03,0,.045.458.354.922.7,1.4,1.027h.344c-.6-.393-1.173-.813-1.743-1.246Z" transform="translate(-513.665 -535.436)" fill="url(#linear-gradient-80)"/>
    <path id="Path_301" data-name="Path 301" d="M596.974,425.731c0-.033.007-.066.011-.1a18.523,18.523,0,0,0-8.461.73c0,.026,0,.053,0,.079A18.4,18.4,0,0,1,596.974,425.731Z" transform="translate(-74.701 -391.245)" fill="url(#linear-gradient-81)"/>
    <path id="Path_302" data-name="Path 302" d="M1172.877,616.369a13.338,13.338,0,0,1-3.948.217v.242a13.181,13.181,0,0,0,3.919-.228c1.3-.229,2.565-.54,3.824-.876v-.2C1175.421,615.847,1174.161,616.146,1172.877,616.369Z" transform="translate(-626.24 -571.869)" fill="url(#linear-gradient-82)"/>
    <path id="Path_303" data-name="Path 303" d="M810.435,441.419a24.783,24.783,0,0,0-8.243-3.793v.109a24.649,24.649,0,0,1,8.243,3.851Z" transform="translate(-277.744 -402.822)" fill="url(#linear-gradient-83)"/>
    <path id="Path_304" data-name="Path 304" d="M810.4,451.78a24.157,24.157,0,0,0-8.205-4.017v.112a24.018,24.018,0,0,1,8.2,4.059l.047.036v-.16Z" transform="translate(-277.744 -412.455)" fill="url(#linear-gradient-84)"/>
    <path id="Path_305" data-name="Path 305" d="M1172.751,634.794a12.719,12.719,0,0,1-3.822.262v.228a12.613,12.613,0,0,0,3.8-.271c1.343-.26,2.65-.617,3.946-1v-.193C1175.384,634.193,1174.084,634.54,1172.751,634.794Z" transform="translate(-626.24 -589.255)" fill="url(#linear-gradient-85)"/>
    <path id="Path_306" data-name="Path 306" d="M596.741,434.323c0-.034,0-.069.007-.1a18.052,18.052,0,0,0-8.429.647c0,.03,0,.059,0,.089A17.977,17.977,0,0,1,596.741,434.323Z" transform="translate(-74.507 -399.371)" fill="url(#linear-gradient-86)"/>
    <path id="Path_307" data-name="Path 307" d="M596.651,443.544c0-.036,0-.072,0-.108a17.779,17.779,0,0,0-8.407.589c0,.015,0,.029,0,.043s0,.037,0,.055A17.744,17.744,0,0,1,596.651,443.544Z" transform="translate(-74.441 -408.106)" fill="url(#linear-gradient-87)"/>
    <path id="Path_308" data-name="Path 308" d="M1172.645,652.371a12.315,12.315,0,0,1-3.716.3v.213a12.249,12.249,0,0,0,3.7-.3,37.623,37.623,0,0,0,4.047-1.116v-.184A38.342,38.342,0,0,1,1172.645,652.371Z" transform="translate(-626.24 -605.847)" fill="url(#linear-gradient-88)"/>
    <path id="Path_309" data-name="Path 309" d="M810.371,462.3a23.5,23.5,0,0,0-8.179-4.2v.113a23.357,23.357,0,0,1,8.18,4.236l.063.051v-.15Z" transform="translate(-277.744 -422.279)" fill="url(#linear-gradient-89)"/>
    <path id="Path_310" data-name="Path 310" d="M596.73,453.481c0-.016,0-.032,0-.048s0-.043,0-.065a17.683,17.683,0,0,0-8.39.562c0,.037,0,.075,0,.112A17.686,17.686,0,0,1,596.73,453.481Z" transform="translate(-74.529 -417.533)" fill="url(#linear-gradient-90)"/>
    <path id="Path_311" data-name="Path 311" d="M810.39,472.924a22.81,22.81,0,0,0-8.2-4.359v.114a22.65,22.65,0,0,1,8.208,4.391l.035.029v-.138Z" transform="translate(-277.744 -432.222)" fill="url(#linear-gradient-91)"/>
    <path id="Path_312" data-name="Path 312" d="M1172.561,669.053a12.074,12.074,0,0,1-3.632.321v.2a12.036,12.036,0,0,0,3.617-.325,34.69,34.69,0,0,0,4.125-1.208v-.174A35.3,35.3,0,0,1,1172.561,669.053Z" transform="translate(-626.24 -621.607)" fill="url(#linear-gradient-92)"/>
    <path id="Path_313" data-name="Path 313" d="M1146.655,684.793a10.175,10.175,0,0,1-4.638.159l-.288.1a9.786,9.786,0,0,0,4.917-.083,32.091,32.091,0,0,0,4.179-1.276v-.164A32.642,32.642,0,0,1,1146.655,684.793Z" transform="translate(-600.393 -636.495)" fill="url(#linear-gradient-93)"/>
    <path id="Path_314" data-name="Path 314" d="M597.079,464.717c0-.039,0-.078,0-.117a19.875,19.875,0,0,0-8.379.632q0,.063.006.126A19.974,19.974,0,0,1,597.079,464.717Z" transform="translate(-74.867 -428.281)" fill="url(#linear-gradient-94)"/>
    <path id="Path_315" data-name="Path 315" d="M802.192,477.079v.113a21.05,21.05,0,0,1,8.243,4.59v-.123A21.238,21.238,0,0,0,802.192,477.079Z" transform="translate(-277.744 -440.313)" fill="url(#linear-gradient-95)"/>
    <path id="Path_316" data-name="Path 316" d="M810.435,492.1a20.345,20.345,0,0,0-8.243-4.6v.136a20.267,20.267,0,0,1,8.243,4.6Z" transform="translate(-277.744 -450.222)" fill="url(#linear-gradient-96)"/>
    <path id="Path_317" data-name="Path 317" d="M1126.244,699.541a8.832,8.832,0,0,1-5.761-.243l-.2.057a8.654,8.654,0,0,0,5.957.341,29.957,29.957,0,0,0,4.206-1.312v-.151A30.214,30.214,0,0,1,1126.244,699.541Z" transform="translate(-580.014 -650.466)" fill="url(#linear-gradient-97)"/>
    <path id="Path_318" data-name="Path 318" d="M589.407,476.808q.005.072.011.144a20.463,20.463,0,0,1,8.37-.693c0-.047-.007-.093-.01-.14A20.41,20.41,0,0,0,589.407,476.808Z" transform="translate(-75.543 -439.252)" fill="url(#linear-gradient-98)"/>
    <path id="Path_319" data-name="Path 319" d="M1111.129,712.942c-2.32.508-4.52.626-6.568-.687l-.164.039.006,0c2.1,1.41,4.339,1.3,6.72.782a31.3,31.3,0,0,0,4.227-1.3v-.141A31,31,0,0,1,1111.129,712.942Z" transform="translate(-564.917 -663.203)" fill="url(#linear-gradient-99)"/>
    <path id="Path_320" data-name="Path 320" d="M599.077,491.5c-.009-.062-.018-.124-.026-.187a20.073,20.073,0,0,0-8.385.61c.006.055.012.11.018.164A19.986,19.986,0,0,1,599.077,491.5Z" transform="translate(-76.739 -453.663)" fill="url(#linear-gradient-100)"/>
    <path id="Path_321" data-name="Path 321" d="M810.435,508.142a20.883,20.883,0,0,0-8.243-4.625v.188a21.047,21.047,0,0,1,8.243,4.629Z" transform="translate(-277.744 -465.436)" fill="url(#linear-gradient-101)"/>
    <path id="Path_322" data-name="Path 322" d="M601.029,507.934c-.014-.067-.028-.134-.041-.2a17.752,17.752,0,0,0-8.446.43q.013.089.026.178A17.749,17.749,0,0,1,601.029,507.934Z" transform="translate(-78.522 -469.143)" fill="url(#linear-gradient-102)"/>
    <path id="Path_323" data-name="Path 323" d="M810.324,527.68a22.232,22.232,0,0,0-8.132-4.431v.195a22.344,22.344,0,0,1,8.1,4.4l.141.121v-.192Z" transform="translate(-277.744 -484.186)" fill="url(#linear-gradient-103)"/>
    <path id="Path_324" data-name="Path 324" d="M1096.979,725.694c-2.4.521-4.624.614-6.749-.783q-.267-.175-.526-.362l-.161.031q.329.24.669.463c2.132,1.393,4.35,1.3,6.756.783a32.906,32.906,0,0,0,4.266-1.289V724.4A32.531,32.531,0,0,1,1096.979,725.694Z" transform="translate(-550.803 -675.333)" fill="url(#linear-gradient-104)"/>
    <path id="Path_325" data-name="Path 325" d="M603.857,525.938c-.021-.071-.04-.143-.06-.214a17.8,17.8,0,0,0-8.534.321q.017.095.035.189A17.837,17.837,0,0,1,603.857,525.938Z" transform="translate(-81.107 -486.187)" fill="url(#linear-gradient-105)"/>
    <path id="Path_326" data-name="Path 326" d="M1082.656,731.591c-2.419.515-4.624.6-6.78-.777-.407-.259-.8-.537-1.185-.83l-.164.025c.43.33.871.644,1.329.933,2.161,1.365,4.364,1.286,6.786.774a34.756,34.756,0,0,0,4.323-1.27v-.13A34.33,34.33,0,0,1,1082.656,731.591Z" transform="translate(-536.533 -680.639)" fill="url(#linear-gradient-106)"/>
    <path id="Path_327" data-name="Path 327" d="M810.188,545.781a22.706,22.706,0,0,0-8-4.294v.2a22.8,22.8,0,0,1,7.967,4.262q.139.114.276.23v-.193Z" transform="translate(-277.744 -501.517)" fill="url(#linear-gradient-107)"/>
    <path id="Path_328" data-name="Path 328" d="M1067.785,734.075c-2.429.5-4.624.575-6.805-.761a19.076,19.076,0,0,1-1.857-1.309l-.173.017a19.5,19.5,0,0,0,2.008,1.417c2.186,1.327,4.38,1.254,6.81.756a36.924,36.924,0,0,0,4.4-1.245v-.126A36.425,36.425,0,0,1,1067.785,734.075Z" transform="translate(-521.731 -682.559)" fill="url(#linear-gradient-108)"/>
    <path id="Path_329" data-name="Path 329" d="M607.64,544.974c-.029-.076-.057-.152-.084-.228a18.014,18.014,0,0,0-8.674.2q.022.1.046.2A18.081,18.081,0,0,1,607.64,544.974Z" transform="translate(-84.546 -504.201)" fill="url(#linear-gradient-109)"/>
    <path id="Path_330" data-name="Path 330" d="M810.059,564.5a23.089,23.089,0,0,0-7.867-4.138v.209a23.163,23.163,0,0,1,7.84,4.1q.2.157.393.317c0-.062,0-.124.006-.187Q810.246,564.652,810.059,564.5Z" transform="translate(-277.744 -519.456)" fill="url(#linear-gradient-110)"/>
    <path id="Path_331" data-name="Path 331" d="M1051.945,735.9c-2.431.482-4.625.554-6.826-.737a21.356,21.356,0,0,1-2.565-1.806l-.186.01a21.938,21.938,0,0,0,2.727,1.917c2.205,1.28,4.4,1.208,6.83.731a39.431,39.431,0,0,0,4.481-1.214v-.122A38.858,38.858,0,0,1,1051.945,735.9Z" transform="translate(-505.975 -683.844)" fill="url(#linear-gradient-111)"/>
    <path id="Path_332" data-name="Path 332" d="M612.289,564.884v-.216a18.348,18.348,0,0,0-8.762.081q.028.1.058.207A18.424,18.424,0,0,1,612.289,564.884Z" transform="translate(-88.96 -523.079)" fill="url(#linear-gradient-112)"/>
    <path id="Path_333" data-name="Path 333" d="M809.937,583.78a23.389,23.389,0,0,0-7.745-3.963v.215a23.448,23.448,0,0,1,7.719,3.922q.236.18.469.365c0-.06.01-.12.014-.18Q810.167,583.956,809.937,583.78Z" transform="translate(-277.744 -537.94)" fill="url(#linear-gradient-113)"/>
    <path id="Path_334" data-name="Path 334" d="M809.821,603.558a23.625,23.625,0,0,0-7.629-3.771v.22a23.67,23.67,0,0,1,7.6,3.727q.253.185.5.375c.007-.058.015-.116.021-.175Q810.072,603.744,809.821,603.558Z" transform="translate(-277.744 -556.917)" fill="url(#linear-gradient-114)"/>
    <path id="Path_335" data-name="Path 335" d="M617.795,585.548v-.222a18.748,18.748,0,0,0-8.474.043q.035.107.071.214A18.854,18.854,0,0,1,617.795,585.548Z" transform="translate(-94.466 -542.735)" fill="url(#linear-gradient-115)"/>
    <path id="Path_336" data-name="Path 336" d="M1034.533,736.951c-2.428.458-4.625.532-6.842-.706a24.432,24.432,0,0,1-3.338-2.326h-.207a25.244,25.244,0,0,0,3.52,2.444c2.22,1.225,4.419,1.15,6.845.7a42.344,42.344,0,0,0,4.579-1.177v-.119A41.665,41.665,0,0,1,1034.533,736.951Z" transform="translate(-488.658 -684.377)" fill="url(#linear-gradient-116)"/>
    <path id="Path_337" data-name="Path 337" d="M624.491,606.883v-.227a19.289,19.289,0,0,0-8.123.007q.042.111.085.22A19.427,19.427,0,0,1,624.491,606.883Z" transform="translate(-101.163 -563.037)" fill="url(#linear-gradient-117)"/>
    <path id="Path_338" data-name="Path 338" d="M1014.282,736.474c-2.419.43-4.626.509-6.855-.669a29.073,29.073,0,0,1-4.232-2.894l-.248-.02a30.482,30.482,0,0,0,4.454,3.029,10.2,10.2,0,0,0,6.857.66,45.7,45.7,0,0,0,4.688-1.134v-.116A44.919,44.919,0,0,1,1014.282,736.474Z" transform="translate(-468.513 -683.401)" fill="url(#linear-gradient-118)"/>
    <path id="Path_339" data-name="Path 339" d="M809.71,623.771a23.818,23.818,0,0,0-7.518-3.565v.224a23.859,23.859,0,0,1,7.494,3.518q.25.174.5.353c.01-.057.019-.113.029-.17Q809.962,623.949,809.71,623.771Z" transform="translate(-277.744 -576.321)" fill="url(#linear-gradient-119)"/>
    <path id="Path_340" data-name="Path 340" d="M809.557,644.364a23.993,23.993,0,0,0-7.412-3.346h0c0,.077,0,.152,0,.227a24.03,24.03,0,0,1,7.391,3.3q.228.15.454.3c.012-.055.025-.11.036-.166Q809.792,644.521,809.557,644.364Z" transform="translate(-277.697 -596.097)" fill="url(#linear-gradient-120)"/>
    <path id="Path_341" data-name="Path 341" d="M632.5,628.805v-.232a19.983,19.983,0,0,0-7.7-.024q.05.113.1.225A20.16,20.16,0,0,1,632.5,628.805Z" transform="translate(-109.169 -583.905)" fill="url(#linear-gradient-121)"/>
    <path id="Path_342" data-name="Path 342" d="M991.788,734.013a10.715,10.715,0,0,1-6.864-.626,38.132,38.132,0,0,1-5.38-3.573l-.122-.02c-.008.032-.016.064-.025.1a39.339,39.339,0,0,0,5.5,3.61,10.873,10.873,0,0,0,6.866.616c1.627-.265,3.218-.662,4.8-1.084,0-.038.005-.076.006-.116A48.705,48.705,0,0,1,991.788,734.013Z" transform="translate(-446.135 -680.458)" fill="url(#linear-gradient-122)"/>
    <path id="Path_343" data-name="Path 343" d="M641.9,651.178q.013-.114.023-.231a20.851,20.851,0,0,0-7.175-.046q.059.115.118.229A21.064,21.064,0,0,1,641.9,651.178Z" transform="translate(-118.624 -605.214)" fill="url(#linear-gradient-123)"/>
    <path id="Path_344" data-name="Path 344" d="M987.963,746.848a11.5,11.5,0,0,1-6.871-.579,39.639,39.639,0,0,1-5.546-3.462c-.015.051-.029.1-.044.152a39.744,39.744,0,0,0,5.562,3.421,11.691,11.691,0,0,0,6.872.569c1.594-.239,3.159-.6,4.716-.978a1.1,1.1,0,0,0,.082-.133C991.159,746.232,989.577,746.6,987.963,746.848Z" transform="translate(-442.433 -692.823)" fill="url(#linear-gradient-124)"/>
    <path id="Path_345" data-name="Path 345" d="M808.056,665.053a24.154,24.154,0,0,0-7.359-3.129q-.011.114-.025.226a24.188,24.188,0,0,1,7.363,3.083q.187.116.373.235c.015-.054.028-.109.043-.163Q808.253,665.177,808.056,665.053Z" transform="translate(-276.299 -615.963)" fill="url(#linear-gradient-125)"/>
    <path id="Path_346" data-name="Path 346" d="M804.308,685.6a24.324,24.324,0,0,0-7.422-2.923c-.017.076-.035.15-.053.224a24.364,24.364,0,0,1,7.454,2.879l.25.147c.017-.053.035-.106.052-.16Z" transform="translate(-272.651 -635.685)" fill="url(#linear-gradient-126)"/>
    <path id="Path_347" data-name="Path 347" d="M652.752,673.883q.03-.113.057-.231a21.923,21.923,0,0,0-6.435-.047q.068.117.138.234A22.188,22.188,0,0,1,652.752,673.883Z" transform="translate(-129.676 -626.86)" fill="url(#linear-gradient-127)"/>
    <path id="Path_348" data-name="Path 348" d="M983.515,760.568a12.468,12.468,0,0,1-6.876-.529,40.215,40.215,0,0,1-5.631-3.277l-.052.15a40.454,40.454,0,0,0,5.653,3.238,12.7,12.7,0,0,0,6.876.518c1.239-.169,2.463-.4,3.68-.665q.188-.1.339-.181C986.186,760.114,984.859,760.38,983.515,760.568Z" transform="translate(-438.114 -706.084)" fill="url(#linear-gradient-128)"/>
    <path id="Path_349" data-name="Path 349" d="M798.6,706.018a24.542,24.542,0,0,0-7.629-2.727c-.014.036-.028.07-.043.106a25.138,25.138,0,0,1,7.651,2.8l.086.047c.021-.052.04-.106.06-.159Z" transform="translate(-267.04 -655.273)" fill="url(#linear-gradient-129)"/>
    <path id="Path_350" data-name="Path 350" d="M978.424,774.113a13.647,13.647,0,0,1-6.879-.476,41.548,41.548,0,0,1-5.746-3.1c-.02.05-.04.1-.06.148a41.911,41.911,0,0,0,5.776,3.057,13.939,13.939,0,0,0,6.879.465c.72-.089,1.436-.2,2.148-.32q.194-.085.375-.167C980.091,773.874,979.261,774.008,978.424,774.113Z" transform="translate(-433.157 -719.178)" fill="url(#linear-gradient-130)"/>
    <path id="Path_351" data-name="Path 351" d="M665.27,696.71q.026-.056.051-.113a23.256,23.256,0,0,0-5.421-.026l.135.2A22.739,22.739,0,0,1,665.27,696.71Z" transform="translate(-142.53 -648.749)" fill="url(#linear-gradient-131)"/>
    <path id="Path_352" data-name="Path 352" d="M678.775,717.856q.1-.111.186-.232a23.725,23.725,0,0,0-4.143.078q.09.118.181.235A24.094,24.094,0,0,1,678.775,717.856Z" transform="translate(-156.705 -668.839)" fill="url(#linear-gradient-132)"/>
    <path id="Path_353" data-name="Path 353" d="M972.625,787.557a15.115,15.115,0,0,1-6.881-.422,43.545,43.545,0,0,1-5.9-2.917l-.068.148a44.11,44.11,0,0,0,5.933,2.878,15.486,15.486,0,0,0,6.881.41q.256-.028.512-.059.2-.073.393-.146Q973.063,787.507,972.625,787.557Z" transform="translate(-427.494 -732.175)" fill="url(#linear-gradient-133)"/>
    <path id="Path_354" data-name="Path 354" d="M780.468,721.571a25.153,25.153,0,0,1,7.949,2.559c.024-.052.048-.1.072-.157a25.185,25.185,0,0,0-7.886-2.623Q780.537,721.463,780.468,721.571Z" transform="translate(-257.101 -672.434)" fill="url(#linear-gradient-134)"/>
    <path id="Path_355" data-name="Path 355" d="M565.1,729.435q.93-.224,1.879-.4c-.055-.058-.108-.116-.159-.173l-.041-.041q-.875.172-1.736.386-.325.08-.647.167l-.31.325Q564.591,729.559,565.1,729.435Z" transform="translate(-51.482 -679.529)" fill="url(#linear-gradient-135)"/>
    <path id="Path_356" data-name="Path 356" d="M959.141,800.6a46.531,46.531,0,0,1-6.086-2.738l-.077.148a47.359,47.359,0,0,0,6.132,2.7,15.355,15.355,0,0,0,5.691.456q.208-.061.41-.124A15.552,15.552,0,0,1,959.141,800.6Z" transform="translate(-421.03 -745.141)" fill="url(#linear-gradient-136)"/>
    <path id="Path_357" data-name="Path 357" d="M693.877,740.737a3.351,3.351,0,0,0,.646-.257c-.671,0-1.344.026-2.016.078q.1.119.209.237Q693.3,740.753,693.877,740.737Z" transform="translate(-173.514 -690.612)" fill="url(#linear-gradient-137)"/>
    <path id="Path_358" data-name="Path 358" d="M538.98,749.171c.895-.19,1.8-.36,2.718-.5-.1-.068-.19-.138-.28-.209-.84.134-1.673.295-2.495.474-.775.169-1.542.361-2.3.564l-.294.307C537.2,749.579,538.086,749.36,538.98,749.171Z" transform="translate(-25.102 -698.199)" fill="url(#linear-gradient-138)"/>
    <path id="Path_359" data-name="Path 359" d="M763.236,742.1c.141.009.283.02.424.032a25.225,25.225,0,0,1,8.025,2.222l.083-.157a25.09,25.09,0,0,0-8.127-2.309l-.174-.014C763.391,741.952,763.314,742.027,763.236,742.1Z" transform="translate(-240.726 -691.936)" fill="url(#linear-gradient-139)"/>
    <path id="Path_360" data-name="Path 360" d="M516.745,767.864a49.125,49.125,0,0,1,4.865-.683,4.84,4.84,0,0,1-.916-.164c-1.349.146-2.691.366-4.005.616s-2.584.55-3.861.861a1.355,1.355,0,0,0-.171.257C514.009,768.431,515.367,768.118,516.745,767.864Z" transform="translate(-2.609 -715.829)" fill="url(#linear-gradient-140)"/>
    <path id="Path_361" data-name="Path 361" d="M951.6,814.1a50.965,50.965,0,0,1-6.322-2.558l-.089.149a52.156,52.156,0,0,0,6.381,2.518,14.651,14.651,0,0,0,3.923.454l.417-.1A14.78,14.78,0,0,1,951.6,814.1Z" transform="translate(-413.631 -758.143)" fill="url(#linear-gradient-141)"/>
    <path id="Path_362" data-name="Path 362" d="M723.94,763.629a25.946,25.946,0,0,1,7.521,1.83l.1-.158a25.775,25.775,0,0,0-7.637-1.915c-.589-.045-1.182-.064-1.776-.063a4.465,4.465,0,0,1-.8.263A24.036,24.036,0,0,1,723.94,763.629Z" transform="translate(-200.92 -712.319)" fill="url(#linear-gradient-142)"/>
    <path id="Path_363" data-name="Path 363" d="M514.388,786.958a41.133,41.133,0,0,1,8.714-.673,26.834,26.834,0,0,1,6.949,1.449l.114-.159a26.622,26.622,0,0,0-7.081-1.53,39.728,39.728,0,0,0-8.751.685c-1.488.243-2.958.547-4.423.855a1.35,1.35,0,0,0,.042.2C511.422,787.488,512.9,787.193,514.388,786.958Z" transform="translate(0 -733.868)" fill="url(#linear-gradient-143)"/>
    <path id="Path_364" data-name="Path 364" d="M936.35,825.338l-.1.151.037.013a58.69,58.69,0,0,0,6.652,2.321,14.255,14.255,0,0,0,2.142.324l.419-.071a14.316,14.316,0,0,1-2.531-.363A57.578,57.578,0,0,1,936.35,825.338Z" transform="translate(-405.132 -771.249)" fill="url(#linear-gradient-144)"/>
    <path id="Path_365" data-name="Path 365" d="M523.417,809.087c-1.412.194-2.812.435-4.208.682q.074.088.156.182c1.363-.231,2.729-.456,4.105-.638a49.138,49.138,0,0,1,8.543-.62,27.913,27.913,0,0,1,6.293,1.088c.046-.053.091-.107.136-.161A27.665,27.665,0,0,0,532,808.455,47.135,47.135,0,0,0,523.417,809.087Z" transform="translate(-8.836 -755.179)" fill="url(#linear-gradient-145)"/>
    <path id="Path_366" data-name="Path 366" d="M926.344,839.611a60.5,60.5,0,0,0,6.618,2q.177.035.354.065.212-.021.422-.044c-.25-.038-.5-.081-.747-.132a59.943,59.943,0,0,1-6.625-2.071l-.355-.115c-.039.051-.079.1-.12.153Z" transform="translate(-395.291 -784.532)" fill="url(#linear-gradient-146)"/>
    <path id="Path_367" data-name="Path 367" d="M913.879,853.559l-.14.156q.478.122.955.254c1.658.456,3.3.985,4.981,1.373q.252-.007.5-.017c-1.845-.411-3.644-1.018-5.46-1.535Q914.3,853.671,913.879,853.559Z" transform="translate(-383.743 -798.067)" fill="url(#linear-gradient-147)"/>
    <path id="Path_368" data-name="Path 368" d="M546.7,830.754a29.243,29.243,0,0,1,5.526.757q.083-.082.165-.165a28.939,28.939,0,0,0-5.7-.826,57.851,57.851,0,0,0-8.411.577c-1.232.139-2.457.309-3.681.487q.09.09.186.182c1.178-.163,2.359-.318,3.545-.447A60.842,60.842,0,0,1,546.7,830.754Z" transform="translate(-23.46 -776.158)" fill="url(#linear-gradient-148)"/>
    <path id="Path_369" data-name="Path 369" d="M900.814,868.634c.566.131,1.132.269,1.7.406q.535.065,1.079.1c-.919-.227-1.834-.467-2.753-.688q-.71-.171-1.424-.325-.084.081-.169.161Q900.031,868.453,900.814,868.634Z" transform="translate(-369.969 -811.915)" fill="url(#linear-gradient-149)"/>
    <path id="Path_370" data-name="Path 370" d="M556.153,852.879a79.134,79.134,0,0,1,8.206-.507,30.828,30.828,0,0,1,4.608.464q.1-.084.206-.17a30.461,30.461,0,0,0-4.825-.523,74.342,74.342,0,0,0-8.243.52c-1,.09-1.992.2-2.984.311q.111.091.227.182C554.282,853.055,555.216,852.96,556.153,852.879Z" transform="translate(-41.062 -796.714)" fill="url(#linear-gradient-150)"/>
    <path id="Path_371" data-name="Path 371" d="M578.28,873.907c2.665-.176,5.37-.467,8.04-.447a32.7,32.7,0,0,1,3.465.222q.136-.087.269-.177a32.271,32.271,0,0,0-3.741-.269c-2.68-.026-5.4.273-8.076.46q-1.024.072-2.047.161.144.092.293.182Q577.381,873.968,578.28,873.907Z" transform="translate(-62.983 -816.763)" fill="url(#linear-gradient-151)"/>
    <path id="Path_372" data-name="Path 372" d="M616.906,895.884q.21-.09.416-.188a93.127,93.127,0,0,0-10.761.26q.195.087.4.169A98.4,98.4,0,0,1,616.906,895.884Z" transform="translate(-91.844 -838.046)" fill="url(#linear-gradient-152)"/>
    <path id="Path_373" data-name="Path 373" d="M659.28,914.939q.53-.084,1.045-.206c-1.948-.006-3.9.052-5.849.14.314.064.639.118.975.158C656.728,914.982,658,914.949,659.28,914.939Z" transform="translate(-137.375 -856.197)" fill="url(#linear-gradient-153)"/>
  </g>
</svg>
