<svg xmlns="http://www.w3.org/2000/svg" width="413" height="378" viewBox="0 0 413 378">
  <g id="Group_50" data-name="Group 50" transform="translate(-1)">
    <rect id="Rectangle_141" data-name="Rectangle 141" width="413" height="378" transform="translate(1)" fill="#090909"/>
    <g id="Group_49" data-name="Group 49" transform="translate(1 0.474)">
      <path id="Path_143" data-name="Path 143" d="M986.3,398.739c-137.665.515-275.334-.39-413,0v-1.146h413Z" transform="translate(-573.296 -397.593)" fill="rgba(255,145,0,0.16)"/>
      <path id="Path_144" data-name="Path 144" d="M986.3,405.519c-68.757,1.53-137.489-2.738-206.253-.1-68.916,2.639-137.823-1.071-206.747.1v-1.147c68.9-1.052,137.792,2.122,206.686-.078,68.778-2.2,137.541,1.451,206.314.078Z" transform="translate(-573.296 -397.009)" fill="rgba(255,145,0,0.16)"/>
      <path id="Path_145" data-name="Path 145" d="M986.3,412.412c-36.968,1.2-73.837-2.5-110.785-3.086-31.713-.5-63.236-.021-94.89,2.738-69.165,6.031-138.126-1.377-207.324.348v-1.147c69.139-1.666,138.1,5.139,207.215-.3,31.645-2.491,63.183-2.842,94.876-2.42,36.986.491,73.908,3.878,110.91,2.721Z" transform="translate(-573.296 -396.539)" fill="rgba(255,145,0,0.16)"/>
      <path id="Path_146" data-name="Path 146" d="M986.3,419.373c-36.725,1.3-73.171-4.585-109.833-5.874a518.6,518.6,0,0,0-94.978,5.163c-31.754,4.709-63.015,6-94.962,5.156-37.763-.992-75.432-5.476-113.228-4.445v-1.147c37.751-1.027,75.391,3.187,113.114,4.081,31.895.756,63.193-.347,94.924-4.728a559.561,559.561,0,0,1,94.965-4.745c36.711,1.17,73.233,6.688,110,5.391Z" transform="translate(-573.296 -396.136)" fill="rgba(255,145,0,0.16)"/>
      <path id="Path_147" data-name="Path 147" d="M986.3,426.4c-36.46,1.178-72.331-7.112-108.648-9.343-32.25-1.98-63.282,1.2-95.056,8.165-15.28,3.352-30.6,6.766-46.079,8.17-16.246,1.473-32.892.812-49.17.078-38.053-1.718-75.921-8.02-114.048-7.07v-1.147c38.071-.974,75.906,5.037,113.911,6.631a382.15,382.15,0,0,0,95.2-7.729c31.765-6.6,62.857-9.5,95.044-7.665,36.373,2.071,72.344,9.973,108.846,8.764Z" transform="translate(-573.296 -395.801)" fill="rgba(255,145,0,0.16)"/>
      <path id="Path_148" data-name="Path 148" d="M986.3,433.521c-36.2.888-71.345-10-107.277-13.359-16.089-1.5-32.8-2.009-48.852.233-15.634,2.184-30.981,6.844-46.273,11.4s-30.637,9.216-46.271,11.4c-16.246,2.27-33.024,1.53-49.328.432-38.392-2.584-76.473-10.834-115-10.109v-1.147c38.46-.768,76.506,7.172,114.843,9.613,16.3,1.037,33.057,1.766,49.3-.372,15.608-2.054,30.95-6.511,46.239-10.875s30.634-8.823,46.242-10.876c16.063-2.114,32.774-1.609,48.873-.191,35.994,3.168,71.263,13.644,107.5,12.7Z" transform="translate(-573.296 -395.558)" fill="rgba(255,145,0,0.16)"/>
      <path id="Path_149" data-name="Path 149" d="M986.3,440.654c-35.967.466-70.24-13.176-105.762-17.794-16.061-2.088-32.715-2.59-48.705.525-15.818,3.081-31.188,9.084-46.484,14.933s-30.666,11.852-46.483,14.933c-16.291,3.174-33.129,2.373-49.52.867-38.767-3.559-77.063-13.851-116.046-13.464v-1.147c38.908-.446,77.171,9.524,115.877,12.925,16.373,1.439,33.208,2.23,49.488-.8,15.787-2.934,31.154-8.722,46.449-14.366s30.663-11.433,46.449-14.368c16-2.973,32.668-2.468,48.73-.476,35.587,4.415,70.006,17.621,106.006,17.081Z" transform="translate(-573.296 -395.327)" fill="rgba(255,145,0,0.16)"/>
      <path id="Path_150" data-name="Path 150" d="M986.3,447.817c-35.781-.043-69.045-16.531-104.149-22.515-16.1-2.745-32.556-3.2-48.542.856-16.026,4.068-31.414,11.481-46.707,18.67s-30.68,14.6-46.706,18.671c-16.386,4.16-33.181,3.307-49.733,1.358-39.168-4.614-77.675-17-117.163-17.039V446.67c39.406-.033,77.881,12.027,116.986,16.473,16.522,1.878,33.331,2.722,49.7-1.279,15.992-3.91,31.378-11.1,46.671-18.079s30.679-14.169,46.672-18.079,32.478-3.441,48.568-.8c35.17,5.767,68.6,21.808,104.405,21.767Z" transform="translate(-573.296 -395.128)" fill="rgba(255,145,0,0.16)"/>
      <path id="Path_151" data-name="Path 151" d="M986.3,455c-35.655-.605-67.792-19.984-102.483-27.4-16.193-3.46-32.35-3.857-48.368,1.208-16.256,5.139-31.647,13.971-46.938,22.521s-30.684,17.383-46.938,22.521c-16.516,5.223-33.187,4.3-49.957,1.877C652.031,470.021,613.32,455.509,573.3,455v-1.147c39.938.434,78.618,14.614,118.135,20.152,16.731,2.345,33.43,3.261,49.922-1.795,16.218-4.972,31.61-13.58,46.9-21.918s30.682-16.945,46.9-21.917c16.009-4.908,32.222-4.5,48.4-1.153,34.755,7.187,67.075,26.114,102.745,26.63Z" transform="translate(-573.296 -394.947)" fill="rgba(255,145,0,0.16)"/>
      <path id="Path_152" data-name="Path 152" d="M986.3,462.189c-35.6-1.18-66.515-23.444-100.808-32.3-16.329-4.217-32.112-4.509-48.194,1.564-16.493,6.229-31.887,16.493-47.169,26.39S759.45,478,742.957,484.232c-16.676,6.3-33.145,5.306-50.185,2.4-40-6.819-78.9-23.445-119.476-24.444v-1.147c40.491.923,79.362,17.222,119.3,23.869,17,2.83,33.5,3.81,50.149-2.321,16.455-6.057,31.849-16.1,47.132-25.79s30.677-19.732,47.133-25.79c16.072-5.916,31.917-5.606,48.222-1.508,34.352,8.633,65.464,30.449,101.067,31.54Z" transform="translate(-573.296 -394.772)" fill="rgba(255,145,0,0.16)"/>
      <path id="Path_153" data-name="Path 153" d="M986.3,469.372c-35.614-1.729-65.25-26.824-99.168-37.1-16.472-4.992-31.88-5.147-48.026,1.906-16.735,7.31-32.124,18.981-47.4,30.185s-30.661,22.874-47.4,30.185c-16.837,7.354-33.073,6.3-50.4,2.906-40.407-7.9-79.475-26.608-120.612-28.078v-1.147c41.051,1.4,80.094,19.782,120.438,27.522,17.284,3.314,33.557,4.362,50.37-2.83,16.7-7.143,32.087-18.6,47.361-29.6s30.662-22.461,47.36-29.6c16.138-6.9,31.6-6.726,48.052-1.854,33.974,10.062,63.812,34.721,99.419,36.367Z" transform="translate(-573.296 -394.591)" fill="rgba(255,145,0,0.16)"/>
      <path id="Path_154" data-name="Path 154" d="M986.3,476.533c-35.7-2.21-64.031-30.035-97.608-41.671-16.595-5.751-31.685-5.748-47.871,2.216-16.974,8.352-32.353,21.368-47.614,33.812s-30.638,25.459-47.612,33.812-33,7.221-50.6,3.365c-40.793-8.932-80.01-29.649-121.691-31.534v-1.146c41.6,1.825,80.794,22.233,121.528,31.011,17.565,3.786,33.618,4.905,50.575-3.3,16.936-8.193,32.317-21,47.579-33.261s30.642-25.068,47.58-33.262c16.182-7.828,31.316-7.805,47.895-2.17,33.627,11.43,62.16,38.839,97.843,40.98Z" transform="translate(-573.296 -394.39)" fill="rgba(255,145,0,0.16)"/>
      <path id="Path_155" data-name="Path 155" d="M986.3,483.661c-35.853-2.579-62.894-33-96.173-45.873-16.674-6.452-31.551-6.288-47.737,2.477-17.2,9.318-32.568,23.589-47.814,37.177s-30.61,27.859-47.814,37.177c-17.071,9.245-32.938,8.036-50.778,3.756-41.146-9.868-80.488-32.508-122.685-34.714v-1.147c42.119,2.165,81.444,24.511,122.537,34.242,17.809,4.216,33.694,5.414,50.753-3.7,17.17-9.174,32.535-23.256,47.784-36.673s30.616-27.5,47.784-36.675c16.189-8.649,31.091-8.788,47.756-2.44,33.322,12.693,60.561,42.717,96.386,45.248Z" transform="translate(-573.296 -394.154)" fill="rgba(255,145,0,0.16)"/>
      <path id="Path_156" data-name="Path 156" d="M986.3,490.741c-36.064-2.791-61.874-35.622-94.907-49.58-16.693-7.053-31.5-6.744-47.631,2.673-17.421,10.165-32.765,25.577-47.994,40.187s-30.572,30.022-47.994,40.188c-17.108,9.983-32.91,8.691-50.912,4.054-41.455-10.68-80.9-35.128-123.562-37.521V489.6c42.6,2.373,82.025,26.549,123.435,37.111,17.983,4.587,33.787,5.866,50.893-4.014,17.389-10.043,32.736-25.285,47.969-39.747s30.578-29.7,47.967-39.746c16.147-9.326,30.951-9.615,47.646-2.646,33.067,13.8,59.063,46.27,95.091,49.041Z" transform="translate(-573.296 -393.872)" fill="rgba(255,145,0,0.16)"/>
      <path id="Path_157" data-name="Path 157" d="M986.3,497.761c-36.326-2.8-61-37.829-93.855-52.661-16.642-7.513-31.528-7.1-47.561,2.783-17.622,10.858-32.943,27.267-48.148,42.75s-30.525,31.892-48.147,42.75c-17.077,10.523-32.931,9.137-51,4.23-41.706-11.327-81.219-37.449-124.29-39.851v-1.147c43.013,2.413,82.516,28.285,124.188,39.524,18.066,4.871,33.9,6.241,50.99-4.211,17.591-10.762,32.915-27.025,48.125-42.384s30.533-31.622,48.126-42.384c16.052-9.82,30.914-10.225,47.569-2.772,32.875,14.711,57.72,49.417,94,52.228Z" transform="translate(-573.296 -393.528)" fill="rgba(255,145,0,0.16)"/>
      <path id="Path_158" data-name="Path 158" d="M986.3,504.706c-36.63-2.542-60.309-39.535-93.061-54.985-16.511-7.789-31.662-7.329-47.534,2.792-17.8,11.351-33.1,28.591-48.267,44.769s-30.465,33.418-48.269,44.77c-16.967,10.819-33.015,9.33-51.029,4.263-41.89-11.779-81.447-39.418-124.84-41.61V503.56c43.349,2.24,82.9,29.654,124.767,41.378,18.032,5.049,34.04,6.521,51.03-4.269,17.776-11.29,33.073-28.409,48.251-44.5s30.476-33.2,48.252-44.495c15.9-10.1,31-10.558,47.535-2.8,32.761,15.372,56.586,52.078,93.165,54.678Z" transform="translate(-573.296 -393.109)" fill="rgba(255,145,0,0.16)"/>
      <path id="Path_159" data-name="Path 159" d="M986.3,511.563c-36.97-1.984-59.822-40.654-92.57-56.423-16.289-7.842-31.909-7.43-47.558,2.683-17.961,11.607-33.225,29.485-48.351,46.155s-30.39,34.548-48.352,46.155c-16.766,10.834-33.169,9.221-50.99,4.128-41.994-12-81.568-40.98-125.18-42.7v-1.147c43.585,1.811,83.158,30.594,125.141,42.576,17.861,5.1,34.2,6.692,51-4.161,17.937-11.584,33.2-29.374,48.34-45.984s30.4-34.4,48.341-45.985c15.687-10.132,31.22-10.559,47.55-2.708,32.742,15.739,55.71,54.17,92.625,56.262Z" transform="translate(-573.296 -390.83)" fill="rgba(255,145,0,0.16)"/>
      <path id="Path_160" data-name="Path 160" d="M986.3,518.308c-37.03-1.76-59.9-40.844-92.666-56.629-16.215-7.812-31.913-7.376-47.487,2.688-17.987,11.622-33.25,29.583-48.371,46.309s-30.384,34.688-48.372,46.31c-16.751,10.825-33.25,9.14-51.049,4.049-41.971-12-81.457-41.011-125.055-42.728v-1.146c43.635,1.584,83.157,30.826,125.149,42.839,17.748,5.078,34.31,6.767,51.014-4.023,18-11.63,33.26-29.66,48.374-46.436s30.369-34.805,48.375-46.436c15.544-10.041,31.338-10.447,47.521-2.647,32.767,15.793,55.49,55.023,92.566,56.7Z" transform="translate(-573.296 -389.988)" fill="rgba(255,145,0,0.16)"/>
      <path id="Path_161" data-name="Path 161" d="M986.3,524.946c-36.869-2.169-60.894-40.2-93.8-55.8-16.4-7.779-31.617-7.244-47.378,2.839-17.856,11.425-33.161,28.825-48.342,45.131s-30.486,33.7-48.342,45.129c-16.975,10.861-33.145,9.235-51.166,4.156-41.658-11.741-80.813-39.122-123.974-41.455V523.8c43.25,2.261,82.468,29.911,124.194,41.714,18,5.092,34.212,6.729,51.161-4.146C766.529,549.9,781.825,532.4,797,516.013s30.47-33.883,48.348-45.354c15.732-10.095,31.005-10.624,47.382-2.828,32.864,15.645,56.69,53.85,93.568,55.969Z" transform="translate(-573.296 -389.023)" fill="rgba(255,145,0,0.16)"/>
      <path id="Path_162" data-name="Path 162" d="M986.3,531.527c-36.931-2.386-62.389-39.167-95.708-54.4-16.557-7.57-31.5-7.081-47.44,2.823-17.71,11-33.063,27.667-48.3,43.361s-30.587,32.358-48.3,43.361c-17.072,10.605-33.032,9.083-51.1,4.163-41.075-11.178-79.725-36.707-122.152-39.306V530.38c42.558,2.577,81.3,28.411,122.479,39.694,18.076,4.952,34.062,6.495,51.125-4.169,17.735-11.083,33.078-27.871,48.306-43.672s30.572-32.589,48.306-43.672c15.915-9.944,30.884-10.448,47.419-2.835,33.238,15.3,58.457,52.289,95.364,54.653Z" transform="translate(-573.296 -387.998)" fill="rgba(255,145,0,0.16)"/>
      <path id="Path_163" data-name="Path 163" d="M986.3,538.057c-37.2-2.435-64.313-37.807-98.284-52.516-16.675-7.22-31.532-6.881-47.648,2.663-17.554,10.4-32.957,26.17-48.243,41.089s-30.688,30.693-48.242,41.089c-17.057,10.1-32.911,8.715-50.889,4.089C652.73,564.11,614.74,540.64,573.3,538.057V536.91c41.612,2.6,79.713,26.405,120.114,36.908,18,4.68,33.867,6.088,50.932-4.105,17.579-10.5,32.973-26.423,48.252-41.473s30.672-30.971,48.251-41.472c16.089-9.612,30.948-9.978,47.607-2.7,33.856,14.8,60.7,50.4,97.843,52.838Z" transform="translate(-573.296 -386.928)" fill="rgba(255,145,0,0.16)"/>
      <path id="Path_164" data-name="Path 164" d="M986.3,544.547c-37.67-2.344-66.589-36.174-101.411-50.227-16.76-6.764-31.7-6.641-47.98,2.382-17.386,9.639-32.841,24.392-48.175,38.4s-30.79,28.76-48.175,38.4c-16.947,9.4-32.785,8.169-50.547,3.944-39.256-9.335-76.453-30.55-116.711-32.9V543.4c40.454,2.4,77.782,23.974,117.205,33.481,17.8,4.293,33.638,5.546,50.608-3.971,17.413-9.765,32.859-24.684,48.187-38.842s30.773-29.077,48.187-38.842c16.251-9.113,31.172-9.273,47.921-2.432,34.678,14.163,63.306,48.24,100.892,50.607Z" transform="translate(-573.296 -385.824)" fill="rgba(255,145,0,0.16)"/>
      <path id="Path_165" data-name="Path 165" d="M986.3,551c-38.31-2.137-69.142-34.319-104.979-47.615-16.813-6.236-31.994-6.357-48.409,2.007-17.211,8.77-32.718,22.394-48.1,35.376s-30.891,26.605-48.1,35.375c-16.759,8.539-32.648,7.476-50.1,3.743C648.506,571.741,612.21,552.955,573.3,551v-1.147c39.131,2.022,75.574,21.2,113.859,29.539,17.508,3.814,33.385,4.9,50.177-3.778,17.239-8.91,32.737-22.716,48.114-35.864s30.875-26.954,48.114-35.865c16.4-8.476,31.53-8.392,48.337-2.07,35.67,13.418,66.2,45.862,104.4,48.038Z" transform="translate(-573.296 -384.697)" fill="rgba(255,145,0,0.16)"/>
      <path id="Path_166" data-name="Path 166" d="M986.3,557.436c-39.082-1.84-71.917-32.249-108.876-44.761-16.826-5.7-32.39-6.03-48.912,1.56-17.029,7.823-32.586,20.234-48.02,32.1s-30.991,24.282-48.021,32.1c-16.511,7.585-32.5,6.677-49.585,3.5C646.065,575.1,610.75,558.887,573.3,557.436v-1.147c37.687,1.533,73.159,18.154,110.182,25.206,17.148,3.266,33.117,4.2,49.67-3.54,17.057-7.974,32.605-20.579,48.033-32.627s30.976-24.651,48.033-32.625c16.5-7.715,32.007-7.419,48.829-1.633,36.774,12.647,69.3,43.327,108.252,45.219Z" transform="translate(-573.296 -383.558)" fill="rgba(255,145,0,0.16)"/>
      <path id="Path_167" data-name="Path 167" d="M986.3,563.852c-39.99-1.484-74.8-30.12-112.988-41.75-16.836-5.127-32.837-5.678-49.461,1.066C807,530,791.4,541.142,775.912,551.836s-31.09,21.834-47.936,28.668c-16.235,6.585-32.318,5.8-49.016,3.231-35.465-5.452-69.738-18.985-105.664-19.883v-1.146c36.167.984,70.6,14.945,106.284,20.613,16.759,2.663,32.827,3.469,49.107-3.274,16.874-6.99,32.471-18.331,47.949-29.211s31.075-22.221,47.949-29.211c16.609-6.879,32.538-6.359,49.373-1.145,38,11.771,72.5,40.684,112.338,42.227Z" transform="translate(-573.296 -382.414)" fill="rgba(255,145,0,0.16)"/>
      <path id="Path_168" data-name="Path 168" d="M986.3,570.262c-40.986-1.094-77.723-27.938-117.2-38.664-16.845-4.576-33.316-5.3-50.033.55-16.666,5.835-32.314,15.675-47.849,25.155s-31.185,19.32-47.85,25.154c-15.95,5.585-32.111,4.892-48.424,2.949-34.065-4.057-67.271-14.8-101.641-15.144v-1.147c34.612.425,67.984,11.611,102.269,15.884,16.371,2.041,32.524,2.745,48.517-2.993,16.693-5.99,32.335-16.032,47.863-25.7s31.169-19.713,47.861-25.7,33.1-5.29,49.945-.631c39.278,10.867,75.718,37.992,116.545,39.146Z" transform="translate(-573.296 -381.274)" fill="rgba(255,145,0,0.16)"/>
      <path id="Path_169" data-name="Path 169" d="M986.3,576.671c-42.032-.7-80.627-25.758-121.411-35.584-16.869-4.063-33.792-4.916-50.6.036-16.492,4.857-32.179,13.393-47.763,21.647s-31.271,16.79-47.763,21.647c-15.693,4.623-31.86,3.98-47.833,2.668-32.666-2.682-64.788-10.6-97.627-10.415v-1.147c33.073-.105,65.365,8.253,98.247,11.146,16.021,1.409,32.193,2.058,47.924-2.711,16.517-5.007,32.2-13.746,47.776-22.189s31.258-17.183,47.776-22.19c16.8-5.092,33.653-4.256,50.517-.115,40.582,9.964,78.893,35.3,120.76,36.059Z" transform="translate(-573.296 -380.144)" fill="rgba(255,145,0,0.16)"/>
      <path id="Path_170" data-name="Path 170" d="M986.3,583.09c-43.091-.323-83.434-23.636-125.5-32.592-16.922-3.6-34.226-4.522-51.148-.452-16.331,3.928-32.048,11.189-47.678,18.232s-31.349,14.3-47.678,18.233c-15.5,3.727-31.569,3.089-47.271,2.4-31.308-1.37-62.347-6.454-93.727-5.822v-1.147c31.6-.567,62.808,4.955,94.323,6.523,15.739.783,31.834,1.419,47.355-2.441,16.354-4.068,32.069-11.525,47.691-18.755S794,552.583,810.357,548.516c16.9-4.2,34.154-3.292,51.066.379,41.867,9.087,81.946,32.669,124.873,33.048Z" transform="translate(-573.296 -379.032)" fill="rgba(255,145,0,0.16)"/>
      <path id="Path_171" data-name="Path 171" d="M986.3,589.524c-44.122,0-86.07-21.627-129.349-29.77-17.015-3.2-34.587-4.12-51.64-.89-16.187,3.067-31.932,9.119-47.6,14.994s-31.412,11.926-47.6,14.993c-15.367,2.911-31.249,2.248-46.763,2.166-30.037-.162-60-2.469-90.051-1.492v-1.146c30.247-.932,60.376,1.8,90.6,2.143,15.538.176,31.454.83,46.837-2.2,16.207-3.192,31.949-9.429,47.611-15.483s31.4-12.291,47.609-15.482c17.034-3.355,34.569-2.435,51.569.825,43.095,8.265,84.8,30.146,128.769,30.2Z" transform="translate(-573.296 -377.942)" fill="rgba(255,145,0,0.16)"/>
      <path id="Path_172" data-name="Path 172" d="M986.3,595.934c-45.085.224-88.462-19.786-132.856-27.2-34.285-5.727-66.25.616-99.581,10.764-15.7,4.78-31.462,9.689-47.524,12.017-15.3,2.216-30.941,1.489-46.333,1.971-28.9.906-57.809,1.256-86.706,2.452v-1.147c29.063-1.172,58.132-1.118,87.2-1.867,15.406-.4,31.088.318,46.393-2,16.081-2.434,31.84-7.515,47.535-12.459,33.32-10.5,65.189-17.1,99.534-11.258,44.228,7.524,87.4,27.779,132.337,27.584Z" transform="translate(-573.296 -376.79)" fill="rgba(255,145,0,0.16)"/>
      <path id="Path_173" data-name="Path 173" d="M986.3,602.431c-45.938.33-90.537-18.168-135.905-24.972-33.943-5.09-66.462-.169-99.83,7.87-15.726,3.789-31.495,7.667-47.46,9.386-15.273,1.643-30.687.851-46.009,1.836-27.944,1.8-55.828,4.611-83.8,5.88v-1.147c28.1-1.268,56.136-3.714,84.216-5.385,15.331-.911,30.776-.129,46.05-1.853,15.979-1.8,31.748-5.834,47.47-9.768,33.366-8.352,65.807-13.467,99.8-8.287,45.228,6.891,89.651,25.616,135.465,25.293Z" transform="translate(-573.296 -375.719)" fill="rgba(255,145,0,0.16)"/>
      <path id="Path_174" data-name="Path 174" d="M986.3,608.966c-46.64.274-92.22-16.823-138.384-23.156-33.68-4.621-66.6-.679-99.964,5.531-15.743,2.931-31.514,5.924-47.406,7.186-15.271,1.214-30.532.383-45.816,1.774-27.207,2.477-54.132,7.491-81.431,8.665v-1.147c27.385-1.2,54.453-5.893,81.759-8.278,15.287-1.336,30.565-.508,45.836-1.779,15.9-1.322,31.672-4.443,47.413-7.5,33.363-6.472,66.236-10.537,99.952-5.854,46.054,6.4,91.5,23.7,138.04,23.408Z" transform="translate(-573.296 -374.695)" fill="rgba(255,145,0,0.16)"/>
      <path id="Path_175" data-name="Path 175" d="M986.3,615.546c-47.148.015-93.438-15.808-140.18-21.841-33.481-4.323-66.643-.876-99.96,3.856-15.754,2.238-31.525,4.518-47.363,5.5-15.28.952-30.516.132-45.78,1.8-26.725,2.916-52.806,9.789-79.717,10.685V614.4c26.953-.952,53.155-7.561,79.937-10.426,15.266-1.633,30.5-.807,45.773-1.787,15.846-1.017,31.616-3.394,47.37-5.727,33.326-4.937,66.462-8.426,99.97-4.07,46.668,6.068,92.866,22.08,139.95,22.01Z" transform="translate(-573.296 -373.722)" fill="rgba(255,145,0,0.16)"/>
      <path id="Path_176" data-name="Path 176" d="M986.3,622.177c-47.422-.5-94.116-15.173-141.182-21.109-33.32-4.2-66.55-.716-99.793,2.956-15.762,1.741-31.53,3.506-47.337,4.422-15.311.887-30.649.148-45.926,1.92-26.52,3.076-51.951,11.4-78.762,11.811v-1.147c26.807-.5,52.323-8.628,78.856-11.7,15.272-1.768,30.588-1.012,45.89-1.893,15.811-.913,31.579-2.745,47.34-4.548,33.258-3.808,66.487-7.251,99.832-3.042,47.033,5.937,93.686,20.782,141.082,21.181Z" transform="translate(-573.296 -372.806)" fill="rgba(255,145,0,0.16)"/>
      <path id="Path_177" data-name="Path 177" d="M986.3,628.857c-47.354-.948-94.007-14.892-141.029-20.823-33.32-4.2-66.539-.643-99.8,2.759-15.756,1.612-31.516,3.243-47.308,4.18-15.3.909-30.643.287-45.9,2.046-26.591,3.067-52.065,11.512-78.953,11.838V627.71c26.868-.307,52.294-8.8,78.86-11.871,15.264-1.764,30.62-1.125,45.919-2.035,15.794-.939,31.557-2.576,47.316-4.2,33.259-3.417,66.477-6.987,99.792-2.781,47.048,5.94,93.73,19.982,141.113,20.882Z" transform="translate(-573.296 -371.945)" fill="rgba(255,145,0,0.16)"/>
      <path id="Path_178" data-name="Path 178" d="M986.3,635.517c-47.066-1.167-93.45-14.439-140.208-20.236-33.324-4.132-66.516-.673-99.792,2.611-15.739,1.553-31.482,3.124-47.253,4.045-15.285.893-30.616.367-45.867,2.076-26.86,3.011-52.757,11.091-79.879,11.5v-1.147c27.074-.4,52.893-8.544,79.7-11.568,15.25-1.72,30.582-1.18,45.865-2.077,15.776-.925,31.522-2.505,47.264-4.069,33.279-3.3,66.477-6.783,99.8-2.635,46.81,5.824,93.245,19.207,140.367,20.349Z" transform="translate(-573.296 -371.062)" fill="rgba(255,145,0,0.16)"/>
      <path id="Path_179" data-name="Path 179" d="M986.3,642.144c-46.619-1.253-92.6-13.777-138.936-19.329-33.272-3.986-66.411-.669-99.642,2.452-15.714,1.476-31.431,2.968-47.174,3.853-15.309.862-30.656.412-45.935,2.036-27.3,2.9-53.79,10.531-81.312,10.989V641c27.45-.454,53.839-8.16,81.059-11.08,15.273-1.639,30.616-1.179,45.919-2.046,15.747-.892,31.47-2.4,47.187-3.887,33.241-3.149,66.39-6.491,99.674-2.477C893.548,627.1,939.6,639.749,986.3,641Z" transform="translate(-573.296 -370.144)" fill="rgba(255,145,0,0.16)"/>
      <path id="Path_180" data-name="Path 180" d="M986.3,648.743c-46.04-1.229-91.492-12.934-137.283-18.15-33.173-3.777-66.234-.638-99.373,2.286-31.02,2.735-62.207,2.506-93.169,5.547-27.88,2.737-55.107,9.855-83.175,10.318V647.6c27.974-.465,55.079-7.666,82.859-10.431,30.954-3.082,62.143-2.843,93.156-5.608,33.157-2.955,66.232-6.125,99.422-2.311,45.884,5.273,91.425,17.109,137.563,18.349Z" transform="translate(-573.296 -369.198)" fill="rgba(255,145,0,0.16)"/>
      <path id="Path_181" data-name="Path 181" d="M986.3,655.319c-45.353-1.119-90.179-11.944-135.316-16.747-33.037-3.514-66-.585-99.007,2.109-31.068,2.535-62.263,2.367-93.286,5.118-28.586,2.535-56.655,9.085-85.392,9.52v-1.147c28.626-.441,56.557-7.083,85.027-9.651,31.012-2.8,62.2-2.622,93.264-5.189,33.031-2.731,66.01-5.7,99.069-2.137,45.245,4.871,90.174,15.837,135.64,16.978Z" transform="translate(-573.296 -368.228)" fill="rgba(255,145,0,0.16)"/>
      <path id="Path_182" data-name="Path 182" d="M986.3,661.876c-44.58-.94-88.7-10.837-133.1-15.165-32.874-3.207-65.713-.517-98.565,1.925-31.131,2.315-62.35,2.186-93.448,4.619-29.389,2.3-58.379,8.244-87.886,8.622v-1.147c29.381-.387,58.225-6.43,87.483-8.766,31.086-2.482,62.3-2.35,93.419-4.7,32.878-2.483,65.737-5.211,98.639-1.955,44.516,4.407,88.754,14.45,133.459,15.421Z" transform="translate(-573.296 -367.24)" fill="rgba(255,145,0,0.16)"/>
      <path id="Path_183" data-name="Path 183" d="M986.3,668.421c-43.749-.72-87.11-9.644-130.708-13.459-32.7-2.863-65.391-.436-98.069,1.74-31.2,2.077-62.462,1.969-93.642,4.068-30.262,2.038-60.229,7.353-90.582,7.652v-1.148c30.217-.311,60.029-5.726,90.152-7.806,31.166-2.151,62.419-2.041,93.61-4.156,32.7-2.217,65.424-4.686,98.148-1.768,43.725,3.9,87.209,12.975,131.089,13.731Z" transform="translate(-573.296 -366.239)" fill="rgba(255,145,0,0.16)"/>
      <path id="Path_184" data-name="Path 184" d="M986.3,674.954c-42.88-.473-85.444-8.395-128.2-11.672-32.507-2.491-65.044-.35-97.537,1.55-31.281,1.829-62.592,1.722-93.857,3.487-31.184,1.76-62.153,6.432-93.4,6.635v-1.145c31.108-.219,61.92-4.992,92.959-6.8,31.251-1.816,62.554-1.71,93.822-3.578,32.521-1.943,65.084-4.13,97.621-1.58,42.891,3.362,85.581,11.441,128.6,11.955Z" transform="translate(-573.296 -365.231)" fill="rgba(255,145,0,0.16)"/>
      <path id="Path_185" data-name="Path 185" d="M986.3,681.486c-42-.222-83.749-7.126-125.656-9.855-32.318-2.106-64.685-.261-96.992,1.36-31.358,1.573-62.731,1.453-94.078,2.892-32.126,1.475-64.1,5.5-96.274,5.6v-1.147c32.029-.116,63.848-4.245,95.826-5.763,31.336-1.489,62.7-1.372,94.044-2.986,32.335-1.664,64.729-3.555,97.077-1.389,42.04,2.814,83.917,9.877,126.052,10.139Z" transform="translate(-573.296 -362.866)" fill="rgba(255,145,0,0.16)"/>
      <path id="Path_186" data-name="Path 186" d="M986.3,688.018c-41.128.016-82.071-5.866-123.132-8.056-32.136-1.713-64.328-.176-96.454,1.171-31.434,1.318-62.869,1.174-94.3,2.305-33.062,1.19-66.024,4.589-99.117,4.58v-1.146c32.951-.009,65.762-3.5,98.679-4.738,31.415-1.178,62.841-1.038,94.264-2.4,32.154-1.388,64.373-2.974,96.536-1.2,41.192,2.272,82.259,8.314,123.521,8.333Z" transform="translate(-573.296 -362.034)" fill="rgba(255,145,0,0.16)"/>
      <path id="Path_187" data-name="Path 187" d="M986.3,694.555c-40.293.226-80.454-4.646-120.7-6.322-31.966-1.33-63.985-.1-95.945.982-31.5,1.065-63,.9-94.5,1.745-33.967.916-67.87,3.7-101.856,3.594v-1.148c33.85.093,67.611-2.786,101.439-3.743,31.488-.891,62.976-.725,94.469-1.829,31.985-1.122,64.03-2.4,96.021-1.012,40.372,1.752,80.651,6.781,121.071,6.584Z" transform="translate(-573.296 -361.208)" fill="rgba(255,145,0,0.16)"/>
      <path id="Path_188" data-name="Path 188" d="M986.3,701.1c-39.514.389-78.943-3.5-118.429-4.7-31.816-.968-63.674-.032-95.486.8-31.559.825-63.112.632-94.669,1.23-34.814.659-69.59,2.861-104.415,2.672v-1.147c34.7.178,69.344-2.113,104.031-2.811,31.549-.635,63.094-.444,94.645-1.305,31.834-.868,63.716-1.85,95.554-.827,39.6,1.271,79.14,5.311,118.77,4.943Z" transform="translate(-573.296 -360.392)" fill="rgba(255,145,0,0.16)"/>
      <path id="Path_189" data-name="Path 189" d="M986.3,707.665c-38.816.49-77.584-2.46-116.386-3.244-31.69-.64-63.408.021-95.1.623-31.6.6-63.2.392-94.8.777-35.577.433-71.134,2.09-106.718,1.844v-1.147c35.472.239,70.914-1.5,106.379-1.965,31.6-.415,63.185-.211,94.783-.843,31.706-.636,63.445-1.336,95.152-.65,38.9.844,77.767,3.937,116.686,3.458Z" transform="translate(-573.296 -359.591)" fill="rgba(255,145,0,0.16)"/>
      <path id="Path_190" data-name="Path 190" d="M986.3,714.247c-38.223.514-76.42-1.555-114.637-2-31.594-.364-63.2.054-94.8.451-67.822.854-135.743,2.044-203.565,1.545V713.1c67.722.5,135.552-.782,203.275-1.7,31.606-.427,63.231-.88,94.839-.477,38.3.487,76.58,2.69,114.887,2.175Z" transform="translate(-573.296 -358.811)" fill="rgba(255,145,0,0.16)"/>
      <path id="Path_191" data-name="Path 191" d="M986.3,720.831c-69.275.824-138.577-1.214-207.863-.717-68.365.49-136.773,1.164-205.137.717v-1.147c68.291.461,136.634-.286,204.927-.827,69.358-.551,138.729,1.681,208.073.827Z" transform="translate(-573.296 -358.03)" fill="rgba(255,145,0,0.16)"/>
      <path id="Path_192" data-name="Path 192" d="M986.3,727.484c-137.636,1.034-275.362.575-413,0v-1.147c68.67.32,137.357-.008,206.028-.248,68.989-.24,137.988.827,206.972.248Z" transform="translate(-573.296 -357.319)" fill="rgba(255,145,0,0.16)"/>
      <path id="Path_193" data-name="Path 193" d="M986.3,734.166h-413v-1.147q206.5.162,413,0Z" transform="translate(-573.296 -356.64)" fill="rgba(255,145,0,0.16)"/>
    </g>
  </g>
</svg>
